<svg width="114" height="92" viewBox="0 0 114 92" fill="none" xmlns="http://www.w3.org/2000/svg">
<path d="M9.216 91.7759V-0.00012207H18.432C19.5413 -0.00012207 20.352 0.127876 20.864 0.383873C21.4613 0.554543 22.0587 1.15188 22.656 2.17587L54.4 58.6239C55.0827 59.7332 55.5947 60.8425 55.936 61.9519C56.3627 62.9759 56.7893 64.0852 57.216 65.2799C57.6427 64.1705 58.0693 63.0612 58.496 61.9519C59.008 60.7572 59.5627 59.6052 60.16 58.4959L91.264 2.17587C91.8613 1.15188 92.416 0.554543 92.928 0.383873C93.5253 0.127876 94.3787 -0.00012207 95.488 -0.00012207H104.704V91.7759H93.824V24.3199C93.824 23.4665 93.824 22.5279 93.824 21.5039C93.9093 20.4799 93.9947 19.4132 94.08 18.3039L62.592 75.6479C61.568 77.6105 60.0747 78.5919 58.112 78.5919H56.32C54.4427 78.5919 52.9493 77.6105 51.84 75.6479L19.712 18.1759C19.8827 19.2852 19.968 20.3945 19.968 21.5039C20.0533 22.5279 20.096 23.4665 20.096 24.3199V91.7759H9.216ZM9.53674e-07 91.7759V86.5279C9.53674e-07 85.7599 0.170668 85.1625 0.512001 84.7359C0.853334 84.2239 1.36533 83.9252 2.048 83.8399L11.648 81.7919L13.056 91.7759H9.53674e-07ZM17.536 91.7759L18.944 81.7919L28.544 83.8399C29.2267 83.9252 29.7387 84.2239 30.08 84.7359C30.4213 85.1625 30.592 85.7599 30.592 86.5279V91.7759H17.536ZM13.056 -0.00012207L11.648 9.98387L2.048 7.93587C1.36533 7.76521 0.853334 7.46654 0.512001 7.03987C0.170668 6.6132 9.53674e-07 6.01587 9.53674e-07 5.24787V-0.00012207H13.056ZM83.328 91.7759V86.5279C83.328 85.7599 83.4987 85.1625 83.84 84.7359C84.1813 84.2239 84.6933 83.9252 85.376 83.8399L94.976 81.7919L96.384 91.7759H83.328ZM100.864 91.7759L102.272 81.7919L111.872 83.8399C112.555 83.9252 113.067 84.2239 113.408 84.7359C113.749 85.1625 113.92 85.7599 113.92 86.5279V91.7759H100.864ZM113.92 -0.00012207V5.24787C113.92 6.01587 113.749 6.6132 113.408 7.03987C113.067 7.46654 112.555 7.76521 111.872 7.93587L102.272 9.98387L100.864 -0.00012207H113.92Z" fill="#B2C278"/>
</svg>
