<svg width="398" height="315" viewBox="0 0 398 315" fill="none" xmlns="http://www.w3.org/2000/svg">
<path d="M33.0087 271.608H367.964V241.689H33.0087V271.608Z" fill="#9D4E25"/>
<path d="M191.546 199.736C184.084 198.38 178.342 195.435 175.496 193.653H33.0087V241.689H367.964V193.653L222.802 194.889C214.091 199.736 201.742 201.59 191.546 199.736Z" fill="#9D4E25"/>
<path d="M367.964 162.798H238.261C237.219 178.154 231.995 189.774 222.802 194.889L367.964 193.653V162.798Z" fill="#9D4E25"/>
<path d="M33.0087 115.329H367.964C367.103 107.51 365.474 96.7463 363.002 84.7417H35.9627C33.342 95.9189 32.0768 106.475 33.0087 115.329Z" fill="#9D4E25"/>
<path d="M35.9627 84.7417H363.002C359.083 65.706 353.045 43.5507 344.585 25.0715H58.1862C49.6511 42.8288 40.6442 64.7755 35.9627 84.7417Z" fill="#9D4E25"/>
<path d="M330.357 1.33716H70.616C67.0767 7.47098 62.6973 15.6861 58.1862 25.0715H344.585C340.437 16.0086 335.706 7.8299 330.357 1.33716Z" fill="#9D4E25"/>
<path d="M157.616 162.798H33.0087V193.653H175.496C159.789 183.816 156.517 170.784 157.616 162.798Z" fill="#9D4E25"/>
<path fill-rule="evenodd" clip-rule="evenodd" d="M1.41877 141.738V297.849H396.044V141.738C396.044 72.3397 367.407 19.2215 353.088 1.33716H330.357C335.706 7.8299 340.437 16.0086 344.585 25.0715C353.045 43.5507 359.083 65.706 363.002 84.7417C365.474 96.7463 367.103 107.51 367.964 115.329H33.0087C32.0768 106.475 33.342 95.9189 35.9627 84.7417C40.6442 64.7755 49.6511 42.8288 58.1862 25.0715C62.6973 15.6861 67.0767 7.47098 70.616 1.33716H42.536C7.36907 54.6893 0.471624 117.168 1.41877 141.738ZM367.964 271.608H33.0087V241.689V193.653V162.798H157.616C156.517 170.784 159.789 183.816 175.496 193.653C178.342 195.435 184.084 198.38 191.546 199.736C201.742 201.59 214.091 199.736 222.802 194.889C231.995 189.774 237.219 178.154 238.261 162.798H367.964V193.653V241.689V271.608Z" fill="#F7C143"/>
<path d="M70.616 1.33716H42.536C7.36907 54.6893 0.471624 117.168 1.41877 141.738V297.849H396.044V141.738C396.044 72.3397 367.407 19.2215 353.088 1.33716H330.357M70.616 1.33716H330.357M70.616 1.33716C67.0767 7.47098 62.6973 15.6861 58.1862 25.0715M330.357 1.33716C335.706 7.8299 340.437 16.0086 344.585 25.0715M58.1862 25.0715C49.6511 42.8288 40.6442 64.7755 35.9627 84.7417C33.342 95.9189 32.0768 106.475 33.0087 115.329H367.964C367.103 107.51 365.474 96.7463 363.002 84.7417M35.9627 84.7417H363.002M363.002 84.7417C359.083 65.706 353.045 43.5507 344.585 25.0715M58.1862 25.0715H344.585M33.0087 241.689V271.608H367.964V241.689M33.0087 241.689H367.964M33.0087 241.689V193.653M367.964 241.689V193.653M367.964 193.653V162.798H238.261C237.219 178.154 231.995 189.774 222.802 194.889C214.091 199.736 201.742 201.59 191.546 199.736C184.084 198.38 178.342 195.435 175.496 193.653C159.789 183.816 156.517 170.784 157.616 162.798H33.0087V193.653M222.802 194.889L367.964 193.653M175.496 193.653H33.0087" stroke="black" stroke-width="2.67429"/>
<path d="M203.713 186.968L198.451 192.215L193.204 186.954L198.466 181.707L203.713 186.968ZM218.368 180.856L213.201 186.046L198.562 171.469L183.803 186.166L178.636 180.976L193.373 166.303L193.35 166.279L198.517 161.09L218.368 180.856ZM193.252 155.97L188.063 161.137L188.04 161.114L173.364 175.851L168.175 170.684L182.872 155.925L168.296 141.286L173.485 136.119L193.252 155.97ZM228.682 141.226L214.106 155.865L228.803 170.625L223.613 175.792L208.938 161.055L208.915 161.077L203.726 155.91L223.492 136.059L228.682 141.226ZM172.637 155.881L167.446 161.198L162.129 156.008L167.319 150.69L172.637 155.881ZM234.669 155.761L229.479 161.077L224.161 155.887L229.352 150.569L234.669 155.761ZM218.367 131.334L203.63 146.009L203.652 146.031L198.485 151.221L178.635 131.454L183.802 126.265L198.44 140.842L213.2 126.144L218.367 131.334ZM203.774 124.865L198.583 130.182L193.267 124.992L198.457 119.675L203.774 124.865Z" fill="#121212"/>
<path d="M2.00562 141.069H171.322M225.476 141.069H395.294" stroke="black" stroke-width="2.67429"/>
</svg>
