<svg width="500" height="500" viewBox="0 0 500 500" fill="none" xmlns="http://www.w3.org/2000/svg">
<rect width="500" height="500" fill="#9FE4E9"/>
<path d="M112.007 346.463H397.628V320.951H112.007V346.463Z" fill="#9D4E25"/>
<path d="M247.194 285.178C240.831 284.021 235.934 281.51 233.508 279.99H112.007V320.951H397.628V279.99L273.846 281.044C266.418 285.178 255.888 286.758 247.194 285.178Z" fill="#9D4E25"/>
<path d="M397.628 253.679H287.028C286.139 266.774 281.685 276.682 273.846 281.044L397.628 279.99V253.679Z" fill="#9D4E25"/>
<path d="M112.007 213.202H397.628C396.893 206.535 395.504 197.357 393.397 187.12H114.526C112.291 196.651 111.212 205.653 112.007 213.202Z" fill="#9D4E25"/>
<path d="M114.526 187.12H393.397C390.055 170.888 384.906 151.996 377.692 136.239H133.476C126.198 151.381 118.518 170.095 114.526 187.12Z" fill="#9D4E25"/>
<path d="M365.559 116H144.075C141.057 121.23 137.323 128.236 133.476 136.239H377.692C374.155 128.511 370.12 121.536 365.559 116Z" fill="#9D4E25"/>
<path d="M218.261 253.679H112.007V279.99H233.508C220.114 271.602 217.324 260.489 218.261 253.679Z" fill="#9D4E25"/>
<path fill-rule="evenodd" clip-rule="evenodd" d="M85.0697 235.721V368.84H421.572V235.721C421.572 176.545 397.153 131.25 384.943 116H365.559C370.12 121.536 374.155 128.511 377.692 136.239C384.906 151.996 390.055 170.888 393.397 187.12C395.504 197.357 396.893 206.535 397.628 213.202H112.007C111.212 205.653 112.291 196.651 114.526 187.12C118.518 170.095 126.198 151.381 133.476 136.239C137.323 128.236 141.057 121.23 144.075 116H120.131C90.1436 161.494 84.2621 214.77 85.0697 235.721ZM397.628 346.463H112.007V320.951V279.99V253.679H218.261C217.324 260.489 220.114 271.602 233.508 279.99C235.934 281.51 240.831 284.021 247.194 285.178C255.888 286.758 266.418 285.178 273.846 281.044C281.685 276.682 286.139 266.774 287.028 253.679H397.628V279.99V320.951V346.463Z" fill="#F7C143"/>
<path d="M144.075 116H120.131C90.1436 161.494 84.2621 214.77 85.0697 235.721V368.84H421.572V235.721C421.572 176.545 397.153 131.25 384.943 116H365.559M144.075 116H365.559M144.075 116C141.057 121.23 137.323 128.236 133.476 136.239M365.559 116C370.12 121.536 374.155 128.511 377.692 136.239M133.476 136.239C126.198 151.381 118.518 170.095 114.526 187.12C112.291 196.651 111.212 205.653 112.007 213.202H397.628C396.893 206.535 395.504 197.357 393.397 187.12M114.526 187.12H393.397M393.397 187.12C390.055 170.888 384.906 151.996 377.692 136.239M133.476 136.239H377.692M112.007 320.951V346.463H397.628V320.951M112.007 320.951H397.628M112.007 320.951V279.99M397.628 320.951V279.99M397.628 279.99V253.679H287.028C286.139 266.774 281.685 276.682 273.846 281.044C266.418 285.178 255.888 286.758 247.194 285.178C240.831 284.021 235.934 281.51 233.508 279.99C220.114 271.602 217.324 260.489 218.261 253.679H112.007V279.99M273.846 281.044L397.628 279.99M233.508 279.99H112.007" stroke="black" stroke-width="2.28041"/>
<path d="M257.568 274.29L253.082 278.765L248.607 274.278L253.094 269.804L257.568 274.29ZM270.065 269.079L265.659 273.504L253.176 261.074L240.59 273.606L236.185 269.182L248.751 256.668L248.731 256.648L253.138 252.224L270.065 269.079ZM248.648 247.858L244.224 252.265L244.204 252.245L231.69 264.812L227.266 260.405L239.798 247.819L227.368 235.337L231.793 230.931L248.648 247.858ZM278.859 235.285L266.431 247.769L278.963 260.354L274.538 264.76L262.024 252.193L262.005 252.213L257.58 247.807L274.435 230.879L278.859 235.285ZM231.069 247.782L226.644 252.315L222.109 247.89L226.535 243.355L231.069 247.782ZM283.965 247.679L279.539 252.213L275.005 247.787L279.432 243.253L283.965 247.679ZM270.064 226.85L257.498 239.363L257.518 239.383L253.111 243.808L236.184 226.952L240.59 222.527L253.072 234.957L265.658 222.425L270.064 226.85ZM257.621 221.335L253.194 225.868L248.66 221.442L253.087 216.908L257.621 221.335Z" fill="#121212"/>
<path d="M85.5703 235.15H229.948M276.127 235.15H420.932" stroke="black" stroke-width="2.28041"/>
</svg>
