<svg width="183" height="312" viewBox="0 0 183 312" fill="none" xmlns="http://www.w3.org/2000/svg">
<path fill-rule="evenodd" clip-rule="evenodd" d="M126.706 126L119.206 131.5L110.706 133.5L105.359 150H77.7053L72.2055 132.5L55.2055 128C55.3722 144.167 56.1053 170.6 61.7053 173C61.7053 180.528 59.9012 194.331 53.0976 196H50.2053C49.7071 198.053 49.1708 200.41 48.6229 203C48.1141 205.405 47.5316 208.041 46.9128 210.843C42.6244 230.255 36.5892 257.574 41.2056 270.5L41.2056 284.5H89.2056V270.5C89.2056 268.801 89.1271 266.667 89.0439 264.408C88.7519 256.475 88.4034 247.009 91.2056 249.5C92.7056 247.667 92.8056 250.9 93.2056 270.5V284.5H140.706V270C146.023 244.122 139.214 216.403 134.459 203C134.425 202.904 134.388 202.8 134.348 202.689C133.75 201 132.538 197.581 131.911 196H127.519C124.007 192.131 121.928 182.798 121.205 177.5C126.005 177.5 126.539 144.667 126.706 126ZM108.206 164.5H73.7056V182L77.7053 191.5H105.359L109.706 182C109.706 176.4 108.706 167.5 108.206 164.5Z" fill="#75A8E7"/>
<path d="M73.7056 164.5H108.206C108.706 167.5 109.706 176.4 109.706 182L105.359 191.5H77.7053L73.7056 182V164.5Z" fill="#033B80"/>
<path d="M97.2101 28.1165C94.8766 17.4498 88.2096 -2.78354 80.2098 1.61646C75.7099 3.44981 67.7101 7.71652 71.7101 10.1165L72.1165 10.3602C77.1565 13.3816 85.2103 18.2097 85.2103 21.6166C85.2103 24.7407 81.3768 27.9499 80.7101 29.6165C84.3767 33.4498 92.8101 38.5164 97.2101 28.1165Z" fill="#08692D"/>
<path d="M97.2101 28.1165C92.8101 38.5164 84.3767 33.4498 80.7101 29.6165C77.7101 29.6165 71.9101 30.0165 72.7101 31.6165C73.0304 32.2572 72.7864 32.9492 72.5532 33.6104L72.551 33.6165C72.2777 34.3913 72.0219 35.1232 72.7101 35.6801C73.2657 36.1296 74.4365 36.4649 76.7101 36.6165C78.2962 38.2027 81.9284 40.4126 85.2103 38.3893C85.4957 38.2133 85.7785 38.0053 86.0571 37.7621C86.2776 37.5695 86.4956 37.3549 86.7101 37.1165C90.5434 38.4499 98.0101 40.2165 97.2101 36.6165C99.2613 36.3235 102.24 35.7557 103.71 35.0943C104.749 34.6272 105.035 34.1133 103.71 33.6165C105.377 31.9498 103.61 28.9165 97.2101 28.1165Z" fill="#08692D"/>
<path d="M121.71 32.1165C143.543 37.4498 174.91 63.7163 125.71 126.116C163.31 71.3163 138.71 40.6164 121.71 32.1165Z" fill="#B0773D"/>
<path d="M103.71 35.0943C111.822 51.3595 123.295 92.3967 105.45 128.182C133.098 73.6356 115.973 43.453 103.71 35.0943Z" fill="#B0773D"/>
<path fill-rule="evenodd" clip-rule="evenodd" d="M91.2101 131.37C90.6757 131.284 90.1711 131.199 89.7101 131.116C86.3337 134.493 82.7688 132.782 80.1723 131.535C79.3754 131.153 78.6698 130.814 78.0887 130.679C48.3917 83.1297 62.1292 47.5341 72.7101 35.6801C73.2657 36.1296 74.4365 36.4649 76.7101 36.6165C78.2962 38.2027 81.9284 40.4126 85.2103 38.3893C79.8769 58.1317 75.6101 105.37 91.2101 131.37Z" fill="#EC8631"/>
<path d="M91.2101 131.37C82.0101 113.972 83.9414 61.7158 86.0571 37.7621C85.7785 38.0053 85.4957 38.2133 85.2103 38.3893C79.8769 58.1317 75.6101 105.37 91.2101 131.37Z" fill="#B0773D"/>
<path d="M78.0887 130.679C48.3917 83.1297 62.1292 47.5341 72.7101 35.6801C72.0219 35.1232 72.2777 34.3913 72.551 33.6165C57.9374 42.8008 40.8887 75.7006 78.0887 130.679Z" fill="#B0773D"/>
<path fill-rule="evenodd" clip-rule="evenodd" d="M80.7101 29.6165C74.3767 27.4498 60.6098 23.7165 58.2098 32.1165C45.0432 28.4498 18.6098 32.1164 18.2098 76.1164C17.8098 120.116 43.3765 129.45 56.2098 128.616C62.5432 130.283 75.5101 133.116 76.7101 131.116C77.0066 130.622 77.4791 130.538 78.0887 130.679C40.8887 75.7006 57.9374 42.8008 72.551 33.6165L72.5532 33.6104C72.7864 32.9492 73.0304 32.2572 72.7101 31.6165C71.9101 30.0165 77.7101 29.6165 80.7101 29.6165ZM69.7101 32.6331C44.756 34.2942 12.3201 60.6164 56.2098 128.616C17.7571 68.0241 47.0534 39.002 69.7101 32.6331ZM86.0571 37.7621C83.9414 61.7158 82.0101 113.972 91.2101 131.37C96.0844 132.149 103.431 132.919 102.71 131.116C102.461 130.494 102.894 130.677 103.899 131.103L103.932 131.116C106.993 132.412 115.231 135.847 125.71 126.116C133.043 130.116 150.51 128.116 161.71 88.1164C175.71 38.1164 131.71 19.6165 121.71 32.1165C118.543 27.2832 109.21 19.7165 97.2101 28.1165C103.61 28.9165 105.377 31.9498 103.71 33.6165C105.035 34.1133 104.749 34.6272 103.71 35.0943C102.24 35.7557 99.2613 36.3235 97.2101 36.6165C98.0101 40.2165 90.5434 38.4499 86.7101 37.1165C86.4956 37.3549 86.2776 37.5695 86.0571 37.7621ZM105.45 128.182C133.098 73.6356 115.973 43.453 103.71 35.0943C111.822 51.3595 123.295 92.3967 105.45 128.182ZM121.71 32.1165C138.71 40.6164 163.31 71.3163 125.71 126.116C174.91 63.7163 143.543 37.4498 121.71 32.1165Z" fill="#EC8631"/>
<path d="M69.7101 32.6331C47.0534 39.002 17.7571 68.0241 56.2098 128.616C12.3201 60.6164 44.756 34.2942 69.7101 32.6331Z" fill="#B0773D"/>
<path d="M97.2052 311V286H122.705V293.5C119.505 296.7 132.872 295.833 139.705 296C152.105 293.6 151.705 305.333 150.205 311H97.2052Z" fill="#B0773D"/>
<path d="M84.9498 311V286H59.4498V293.5C62.6498 296.7 49.2832 295.833 42.4498 296C30.0498 293.6 30.4498 305.333 31.9498 311H84.9498Z" fill="#B0773D"/>
<path d="M7.2052 188.984C9.86714 155.518 39.6477 134.384 54.2052 128V151.688C52.5415 140.802 31.8837 173.36 21.7627 191L7.2052 188.984Z" fill="#46854A"/>
<path d="M173.978 188.751C171.832 155.517 142.865 134.139 128.65 127.604L128.318 151.101C130.106 140.326 149.948 172.909 159.645 190.548L173.978 188.751Z" fill="#46854A"/>
<path d="M78.2052 150L72.7052 133.5L78.2052 131.5C88.7052 137 89.2052 129.5 90.2052 131.5C91.0052 133.1 99.5385 132.167 103.705 131.5L110.205 133.5L103.705 150H78.2052Z" fill="#46854A"/>
<path d="M21.9099 188.076C19.8198 186.551 14.3818 183.978 9.3512 185.89C8.34293 187.108 6.66903 190.32 8.76231 191.56C5.47136 196.362 -1.34468 209.352 1.81537 208.709C4.97543 208.065 5.97947 207.319 7.5088 204.48C6.17413 207.002 3.3105 213.184 6.7683 213.309C8.1052 213.358 9.17724 212.455 9.90491 211.27C9.5491 213.509 9.67648 215.568 11.716 215.763C15.119 216.089 13.7365 213.82 14.9218 207.617C14.7158 209.952 14.1601 213.56 16.635 215.524C20.0478 218.233 20.1099 215.885 19.4709 205.525C19.7595 206.369 20.5993 207.173 22.5793 207.103C23.502 206.567 24.3557 203.073 20.3886 193.385C21.9295 192.176 24.391 189.422 21.9099 188.076Z" fill="#9CB410"/>
<path d="M160.583 189.076C162.673 187.551 168.111 184.978 173.142 186.89C174.15 188.108 175.824 191.32 173.731 192.56C177.022 197.362 183.838 210.352 180.678 209.709C177.518 209.065 176.514 208.319 174.984 205.48C176.319 208.002 179.183 214.184 175.725 214.309C174.388 214.358 173.316 213.455 172.588 212.27C172.944 214.509 172.817 216.568 170.777 216.763C167.374 217.089 168.757 214.82 167.571 208.617C167.777 210.952 168.333 214.56 165.858 216.524C162.445 219.233 162.383 216.885 163.022 206.525C162.734 207.369 161.894 208.173 159.914 208.103C158.991 207.567 158.137 204.073 162.104 194.385C160.564 193.176 158.102 190.422 160.583 189.076Z" fill="#9CB410"/>
<path d="M115.204 162L103.204 157L105.359 150M115.204 162L126.706 126M115.204 162L121.205 177.5M105.359 150L110.706 133.5L119.206 131.5L126.706 126C126.539 144.667 126.005 177.5 121.205 177.5M105.359 150H77.7053M61.7053 173C56.1053 170.6 55.3722 144.167 55.2055 128L72.2055 132.5L77.7053 150M77.7053 150L79.2046 157L67.2047 162M55.2055 128L67.2047 162M67.2047 162L61.7053 173M121.205 177.5C121.928 182.798 124.007 192.131 127.519 196M61.7053 173C61.7053 180.528 59.9012 194.331 53.0976 196M53.0976 196H50.2053C49.7071 198.053 49.1708 200.41 48.6229 203C48.1141 205.405 47.5316 208.041 46.9128 210.843C42.6244 230.255 36.5892 257.574 41.2056 270.5M50.2053 196C51.2573 196.229 52.2191 196.216 53.0976 196M41.2056 270.5L41.2056 284.5H89.2056V270.5M41.2056 270.5H89.2056M132.205 197.5C130.428 198.166 128.868 197.487 127.519 196M131.705 195.5C131.762 195.633 131.833 195.802 131.911 196M140.706 270L93.2056 270.5M140.706 270V284.5H93.2056V270.5M131.911 196C132.538 197.581 133.75 201 134.348 202.689C134.388 202.8 134.425 202.904 134.459 203C139.214 216.403 146.023 244.122 140.706 270M93.2056 270.5C92.8056 250.9 92.7056 247.667 91.2056 249.5C88.4034 247.009 88.7519 256.475 89.0439 264.408C89.1271 266.667 89.2056 268.801 89.2056 270.5M132.205 196H131.911M86.7049 196H96.2049M86.7049 196V203M86.7049 196H53.0976M96.2049 196V203M96.2049 196H127.519M96.2049 203V240L86.7049 238V203M96.2049 203H134.459M48.6229 203H86.7049M127.519 196H131.911M80.7101 29.6165C74.3767 27.4498 60.6098 23.7165 58.2098 32.1165C45.0432 28.4498 18.6098 32.1164 18.2098 76.1164C17.8098 120.116 43.3765 129.45 56.2098 128.616M97.2101 28.1165C94.8766 17.4498 88.2096 -2.78354 80.2098 1.61646C75.7099 3.44981 67.7101 7.71652 71.7101 10.1165C71.8432 10.1964 71.9787 10.2776 72.1165 10.3602C77.1565 13.3816 85.2103 18.2097 85.2103 21.6166C85.2103 24.7407 81.3768 27.9499 80.7101 29.6165M80.7101 29.6165C84.3767 33.4498 92.8101 38.5164 97.2101 28.1165M72.551 33.6165C72.5517 33.6145 72.5524 33.6124 72.5532 33.6104C72.7864 32.9492 73.0304 32.2572 72.7101 31.6165C71.9101 30.0165 77.7101 29.6165 80.7101 29.6165M56.2098 128.616C62.5432 130.283 75.5101 133.116 76.7101 131.116C77.0066 130.622 77.4791 130.538 78.0887 130.679M56.2098 128.616C17.7571 68.0241 47.0534 39.002 69.7101 32.6331M56.2098 128.616C12.3201 60.6164 44.756 34.2942 69.7101 32.6331M125.71 126.116C133.043 130.116 150.51 128.116 161.71 88.1164C175.71 38.1164 131.71 19.6165 121.71 32.1165M125.71 126.116C174.91 63.7163 143.543 37.4498 121.71 32.1165M97.2101 28.1165C109.21 19.7165 118.543 27.2832 121.71 32.1165C138.71 40.6164 163.31 71.3163 125.71 126.116M125.71 126.116C115.231 135.847 106.993 132.412 103.932 131.116M86.0571 37.7621C86.2776 37.5695 86.4956 37.3549 86.7101 37.1165C90.5434 38.4499 98.0101 40.2165 97.2101 36.6165C99.2613 36.3235 102.24 35.7557 103.71 35.0943C104.749 34.6272 105.035 34.1133 103.71 33.6165C105.377 31.9498 103.61 28.9165 97.2101 28.1165M71.7101 10.1165L72.1165 10.3602M103.71 35.0943C111.822 51.3595 123.295 92.3967 105.45 128.182M103.71 35.0943C115.973 43.453 133.098 73.6356 105.45 128.182M103.932 131.116C104.148 130.707 104.361 130.299 104.572 129.893M103.932 131.116L103.899 131.103M91.2101 131.37C96.0844 132.149 103.431 132.919 102.71 131.116C102.461 130.494 102.894 130.677 103.899 131.103C103.91 131.107 103.921 131.112 103.932 131.116M104.572 129.893C104.872 129.324 105.165 128.754 105.45 128.182M104.572 129.893C104.87 129.32 105.162 128.75 105.45 128.182M86.0571 37.7621C83.9414 61.7158 82.0101 113.972 91.2101 131.37M72.7101 35.6801C73.2657 36.1296 74.4365 36.4649 76.7101 36.6165C78.2962 38.2027 81.9284 40.4126 85.2103 38.3893C85.4957 38.2133 85.7785 38.0053 86.0571 37.7621M91.2101 131.37C90.6757 131.284 90.1711 131.199 89.7101 131.116C86.3337 134.493 82.7688 132.782 80.1723 131.535C79.3754 131.153 78.6698 130.814 78.0887 130.679M91.2101 131.37C75.6101 105.37 79.8769 58.1317 85.2103 38.3893M72.7101 35.6801C62.1292 47.5341 48.3917 83.1297 78.0887 130.679M72.7101 35.6801C72.0219 35.1232 72.2777 34.3913 72.551 33.6165M78.0887 130.679C40.8887 75.7006 57.9374 42.8008 72.551 33.6165M72.551 33.6165L72.5532 33.6104M72.7781 31.776C72.1215 31.9305 70.386 32.4431 69.7101 32.6331M125.205 296V303.5M130.205 297V303.5M135.205 296V303.5M56.9498 296V303.5M51.9498 297V303.5M46.9498 296V303.5M9.90491 211.27C9.17724 212.455 8.1052 213.358 6.7683 213.309C3.3105 213.184 6.17413 207.002 7.5088 204.48C5.97947 207.319 4.97543 208.065 1.81537 208.709C-1.34468 209.352 5.47136 196.362 8.76231 191.56C6.66903 190.32 8.34293 187.108 9.3512 185.89C14.3818 183.978 19.8198 186.551 21.9099 188.076C24.391 189.422 21.9295 192.176 20.3886 193.385C24.3557 203.073 23.502 206.567 22.5793 207.103C20.5993 207.173 19.7595 206.369 19.4709 205.525M9.90491 211.27C10.802 209.81 11.1757 207.921 10.8771 206.858C10.6466 208.025 10.1557 209.692 9.90491 211.27ZM14.9682 207.371C14.9528 207.454 14.9373 207.536 14.9218 207.617C13.7365 213.82 15.119 216.089 11.716 215.763C9.67648 215.568 9.5491 213.509 9.90491 211.27M14.9218 207.617C14.7158 209.952 14.1601 213.56 16.635 215.524C20.0478 218.233 20.1099 215.885 19.4709 205.525M19.4709 205.525C19.4457 205.116 19.4193 204.694 19.392 204.259C19.32 204.607 19.3158 205.072 19.4709 205.525ZM172.588 212.27C173.316 213.455 174.388 214.358 175.725 214.309C179.183 214.184 176.319 208.002 174.984 205.48C176.514 208.319 177.518 209.065 180.678 209.709C183.838 210.352 177.022 197.362 173.731 192.56C175.824 191.32 174.15 188.108 173.142 186.89C168.111 184.978 162.673 187.551 160.583 189.076C158.102 190.422 160.564 193.176 162.104 194.385C158.137 204.073 158.991 207.567 159.914 208.103C161.894 208.173 162.734 207.369 163.022 206.525M172.588 212.27C171.691 210.81 171.317 208.921 171.616 207.858C171.846 209.025 172.337 210.692 172.588 212.27ZM167.525 208.371C167.54 208.454 167.556 208.536 167.571 208.617C168.757 214.82 167.374 217.089 170.777 216.763C172.817 216.568 172.944 214.509 172.588 212.27M167.571 208.617C167.777 210.952 168.333 214.56 165.858 216.524C162.445 219.233 162.383 216.885 163.022 206.525M163.022 206.525C163.047 206.116 163.074 205.694 163.101 205.259C163.173 205.607 163.177 206.072 163.022 206.525ZM73.7056 164.5H108.206C108.706 167.5 109.706 176.4 109.706 182L105.359 191.5H77.7053L73.7056 182V164.5ZM97.2052 286V311H150.205C151.705 305.333 152.105 293.6 139.705 296C132.872 295.833 119.505 296.7 122.705 293.5V286H97.2052ZM84.9498 286V311H31.9498C30.4498 305.333 30.0498 293.6 42.4498 296C49.2832 295.833 62.6498 296.7 59.4498 293.5V286H84.9498ZM54.2052 128C39.6477 134.384 9.86714 155.518 7.2052 188.984L21.7627 191C31.8837 173.36 52.5415 140.802 54.2052 151.688V128ZM128.65 127.604C142.865 134.139 171.832 155.517 173.978 188.751L159.645 190.548C149.948 172.909 130.106 140.326 128.318 151.101L128.65 127.604ZM72.7052 133.5L78.2052 150H103.705L110.205 133.5L103.705 131.5C99.5385 132.167 91.0052 133.1 90.2052 131.5C89.2052 129.5 88.7052 137 78.2052 131.5L72.7052 133.5Z" stroke="black" stroke-width="2"/>
</svg>
