<svg width="500" height="500" viewBox="0 0 500 500" fill="none" xmlns="http://www.w3.org/2000/svg">
<rect width="500" height="500" fill="#FFC156"/>
<ellipse cx="250" cy="404.5" rx="97" ry="16.5" fill="#885829" fill-opacity="0.62"/>
<path fill-rule="evenodd" clip-rule="evenodd" d="M285.706 220L278.206 225.5L269.706 227.5L264.359 244H236.705L231.206 226.5L214.206 222C214.372 238.167 215.105 264.6 220.705 267C220.705 274.528 218.901 288.331 212.098 290H209.205C208.707 292.052 208.171 294.41 207.623 297C207.114 299.405 206.532 302.041 205.913 304.843C201.625 324.254 195.589 351.574 200.206 364.5L200.206 378.5H248.206V364.5C248.206 362.801 248.127 360.667 248.044 358.408C247.752 350.475 247.404 341.009 250.206 343.5C251.706 341.667 251.806 344.9 252.206 364.5V378.5H299.706V364C305.023 338.122 298.214 310.403 293.459 297C293.425 296.904 293.388 296.8 293.348 296.688C292.75 295 291.538 291.581 290.911 290H286.519C283.007 286.131 280.928 276.798 280.205 271.5C285.005 271.5 285.539 238.667 285.706 220ZM267.206 258.5H232.706V276L236.705 285.5H264.359L268.706 276C268.706 270.4 267.706 261.5 267.206 258.5Z" fill="#75A8E7"/>
<path d="M232.706 258.5H267.206C267.706 261.5 268.706 270.4 268.706 276L264.359 285.5H236.705L232.706 276V258.5Z" fill="#033B80"/>
<path d="M256.21 122.116C253.877 111.45 247.21 91.2164 239.21 95.6164C234.71 97.4498 226.71 101.716 230.71 104.116L231.117 104.36C236.157 107.382 244.21 112.21 244.21 115.616C244.21 118.741 240.377 121.95 239.71 123.616C243.377 127.45 251.81 132.516 256.21 122.116Z" fill="#08692D"/>
<path d="M256.21 122.116C251.81 132.516 243.377 127.45 239.71 123.616C236.71 123.616 230.91 124.016 231.71 125.616C232.031 126.257 231.786 126.949 231.553 127.61L231.551 127.616C231.278 128.391 231.022 129.123 231.71 129.68C232.266 130.13 233.437 130.465 235.71 130.616C237.296 132.203 240.928 134.413 244.21 132.389C244.496 132.213 244.779 132.005 245.057 131.762C245.278 131.569 245.496 131.355 245.71 131.116C249.544 132.45 257.01 134.216 256.21 130.616C258.261 130.323 261.24 129.756 262.71 129.094C263.749 128.627 264.035 128.113 262.71 127.616C264.377 125.95 262.61 122.916 256.21 122.116Z" fill="#08692D"/>
<path d="M280.71 126.116C302.544 131.45 333.91 157.716 284.71 220.116C322.31 165.316 297.71 134.616 280.71 126.116Z" fill="#B0773D"/>
<path d="M262.71 129.094C270.822 145.359 282.295 186.397 264.45 222.182C292.098 167.635 274.973 137.453 262.71 129.094Z" fill="#B0773D"/>
<path fill-rule="evenodd" clip-rule="evenodd" d="M250.21 225.37C249.676 225.284 249.171 225.199 248.71 225.116C245.334 228.493 241.769 226.782 239.172 225.535C238.376 225.153 237.67 224.814 237.089 224.679C207.392 177.13 221.129 141.534 231.71 129.68C232.266 130.13 233.437 130.465 235.71 130.616C237.296 132.203 240.928 134.413 244.21 132.389C238.877 152.132 234.61 199.37 250.21 225.37Z" fill="#EC8631"/>
<path d="M250.21 225.37C241.01 207.972 242.942 155.716 245.057 131.762C244.779 132.005 244.496 132.213 244.21 132.389C238.877 152.132 234.61 199.37 250.21 225.37Z" fill="#B0773D"/>
<path d="M237.089 224.679C207.392 177.13 221.129 141.534 231.71 129.68C231.022 129.123 231.278 128.391 231.551 127.616C216.937 136.801 199.889 169.701 237.089 224.679Z" fill="#B0773D"/>
<path fill-rule="evenodd" clip-rule="evenodd" d="M239.71 123.616C233.377 121.45 219.61 117.716 217.21 126.116C204.043 122.45 177.61 126.116 177.21 170.116C176.81 214.116 202.377 223.45 215.21 222.616C221.543 224.283 234.51 227.116 235.71 225.116C236.007 224.622 236.479 224.538 237.089 224.679C199.889 169.701 216.937 136.801 231.551 127.616L231.553 127.61C231.786 126.949 232.031 126.257 231.71 125.616C230.91 124.016 236.71 123.616 239.71 123.616ZM228.71 126.633C203.756 128.294 171.32 154.616 215.21 222.616C176.757 162.024 206.053 133.002 228.71 126.633ZM245.057 131.762C242.942 155.716 241.01 207.972 250.21 225.37C255.085 226.149 262.431 226.919 261.71 225.116C261.461 224.494 261.894 224.677 262.899 225.103L262.932 225.116C265.993 226.412 274.231 229.847 284.71 220.116C292.044 224.116 309.51 222.116 320.71 182.116C334.71 132.116 290.71 113.616 280.71 126.116C277.544 121.283 268.21 113.716 256.21 122.116C262.61 122.916 264.377 125.95 262.71 127.616C264.035 128.113 263.749 128.627 262.71 129.094C261.24 129.756 258.261 130.323 256.21 130.616C257.01 134.216 249.544 132.45 245.71 131.116C245.496 131.355 245.278 131.569 245.057 131.762ZM264.45 222.182C292.098 167.635 274.973 137.453 262.71 129.094C270.822 145.359 282.295 186.397 264.45 222.182ZM280.71 126.116C297.71 134.616 322.31 165.316 284.71 220.116C333.91 157.716 302.544 131.45 280.71 126.116Z" fill="#EC8631"/>
<path d="M228.71 126.633C206.053 133.002 176.757 162.024 215.21 222.616C171.32 154.616 203.756 128.294 228.71 126.633Z" fill="#B0773D"/>
<path d="M256.205 405V380H281.705V387.5C278.505 390.7 291.872 389.833 298.705 390C311.105 387.6 310.705 399.333 309.205 405H256.205Z" fill="#B0773D"/>
<path d="M243.95 405V380H218.45V387.5C221.65 390.7 208.283 389.833 201.45 390C189.05 387.6 189.45 399.333 190.95 405H243.95Z" fill="#B0773D"/>
<path d="M166.205 282.984C168.867 249.518 198.648 228.384 213.205 222V245.688C211.542 234.802 190.884 267.36 180.763 285L166.205 282.984Z" fill="#46854A"/>
<path d="M332.979 282.751C330.832 249.517 301.866 228.139 287.65 221.604L287.318 245.101C289.106 234.326 308.948 266.909 318.646 284.548L332.979 282.751Z" fill="#46854A"/>
<path d="M237.205 244L231.705 227.5L237.205 225.5C247.705 231 248.205 223.5 249.205 225.5C250.005 227.1 258.539 226.167 262.705 225.5L269.205 227.5L262.705 244H237.205Z" fill="#46854A"/>
<path d="M180.91 282.076C178.82 280.551 173.382 277.978 168.351 279.89C167.343 281.108 165.669 284.32 167.762 285.56C164.471 290.362 157.655 303.352 160.815 302.709C163.976 302.065 164.98 301.319 166.509 298.48C165.174 301.002 162.311 307.184 165.768 307.309C167.105 307.357 168.177 306.455 168.905 305.27C168.549 307.509 168.677 309.567 170.716 309.763C174.119 310.089 172.737 307.82 173.922 301.617C173.716 303.952 173.16 307.56 175.635 309.524C179.048 312.233 179.11 309.885 178.471 299.525C178.76 300.369 179.599 301.173 181.579 301.103C182.502 300.567 183.356 297.073 179.389 287.385C180.93 286.176 183.391 283.422 180.91 282.076Z" fill="#9CB410"/>
<path d="M319.583 283.076C321.673 281.551 327.111 278.978 332.142 280.89C333.15 282.108 334.824 285.32 332.731 286.56C336.022 291.362 342.838 304.352 339.678 303.709C336.518 303.065 335.514 302.319 333.984 299.48C335.319 302.002 338.183 308.184 334.725 308.309C333.388 308.357 332.316 307.455 331.588 306.27C331.944 308.509 331.817 310.567 329.777 310.763C326.374 311.089 327.757 308.82 326.571 302.617C326.777 304.952 327.333 308.56 324.858 310.524C321.445 313.233 321.383 310.885 322.022 300.525C321.734 301.369 320.894 302.173 318.914 302.103C317.991 301.567 317.137 298.073 321.105 288.385C319.564 287.176 317.102 284.422 319.583 283.076Z" fill="#9CB410"/>
<path d="M274.205 256L262.205 251L264.359 244M274.205 256L285.706 220M274.205 256L280.205 271.5M264.359 244L269.706 227.5L278.206 225.5L285.706 220C285.539 238.667 285.005 271.5 280.205 271.5M264.359 244H236.705M220.705 267C215.105 264.6 214.372 238.167 214.206 222L231.206 226.5L236.705 244M236.705 244L238.205 251L226.205 256M214.206 222L226.205 256M226.205 256L220.705 267M280.205 271.5C280.928 276.798 283.007 286.131 286.519 290M220.705 267C220.705 274.528 218.901 288.331 212.098 290M212.098 290H209.205C208.707 292.052 208.171 294.41 207.623 297C207.114 299.405 206.532 302.041 205.913 304.843C201.625 324.254 195.589 351.574 200.206 364.5M209.205 290C210.257 290.229 211.219 290.215 212.098 290M200.206 364.5L200.206 378.5H248.206V364.5M200.206 364.5H248.206M291.205 291.5C289.428 292.166 287.868 291.487 286.519 290M290.705 289.5C290.763 289.633 290.833 289.802 290.911 290M299.706 364L252.206 364.5M299.706 364V378.5H252.206V364.5M290.911 290C291.538 291.581 292.75 295 293.348 296.688C293.388 296.8 293.425 296.904 293.459 297C298.214 310.403 305.023 338.122 299.706 364M252.206 364.5C251.806 344.9 251.706 341.667 250.206 343.5C247.404 341.009 247.752 350.475 248.044 358.408C248.127 360.667 248.206 362.801 248.206 364.5M291.205 290H290.911M245.705 290H255.205M245.705 290V297M245.705 290H212.098M255.205 290V297M255.205 290H286.519M255.205 297V334L245.705 332V297M255.205 297H293.459M207.623 297H245.705M286.519 290H290.911M239.71 123.616C233.377 121.45 219.61 117.716 217.21 126.116C204.043 122.45 177.61 126.116 177.21 170.116C176.81 214.116 202.377 223.45 215.21 222.616M256.21 122.116C253.877 111.45 247.21 91.2164 239.21 95.6164C234.71 97.4498 226.71 101.716 230.71 104.116C230.843 104.196 230.979 104.278 231.117 104.36C236.157 107.382 244.21 112.21 244.21 115.616C244.21 118.741 240.377 121.95 239.71 123.616M239.71 123.616C243.377 127.45 251.81 132.516 256.21 122.116M231.551 127.616C231.552 127.614 231.553 127.612 231.553 127.61C231.786 126.949 232.031 126.257 231.71 125.616C230.91 124.016 236.71 123.616 239.71 123.616M215.21 222.616C221.543 224.283 234.51 227.116 235.71 225.116C236.007 224.622 236.479 224.538 237.089 224.679M215.21 222.616C176.757 162.024 206.053 133.002 228.71 126.633M215.21 222.616C171.32 154.616 203.756 128.294 228.71 126.633M284.71 220.116C292.044 224.116 309.51 222.116 320.71 182.116C334.71 132.116 290.71 113.616 280.71 126.116M284.71 220.116C333.91 157.716 302.544 131.45 280.71 126.116M256.21 122.116C268.21 113.716 277.544 121.283 280.71 126.116C297.71 134.616 322.31 165.316 284.71 220.116M284.71 220.116C274.231 229.847 265.993 226.412 262.932 225.116M245.057 131.762C245.278 131.569 245.496 131.355 245.71 131.116C249.544 132.45 257.01 134.216 256.21 130.616C258.261 130.323 261.24 129.756 262.71 129.094C263.749 128.627 264.035 128.113 262.71 127.616C264.377 125.95 262.61 122.916 256.21 122.116M230.71 104.116L231.117 104.36M262.71 129.094C270.822 145.359 282.295 186.397 264.45 222.182M262.71 129.094C274.973 137.453 292.098 167.635 264.45 222.182M262.932 225.116C263.148 224.707 263.361 224.299 263.572 223.893M262.932 225.116L262.899 225.103M250.21 225.37C255.085 226.149 262.431 226.919 261.71 225.116C261.461 224.494 261.894 224.677 262.899 225.103C262.91 225.107 262.921 225.112 262.932 225.116M263.572 223.893C263.873 223.324 264.165 222.754 264.45 222.182M263.572 223.893C263.87 223.32 264.162 222.75 264.45 222.182M245.057 131.762C242.942 155.716 241.01 207.972 250.21 225.37M231.71 129.68C232.266 130.13 233.437 130.465 235.71 130.616C237.296 132.203 240.928 134.413 244.21 132.389C244.496 132.213 244.779 132.005 245.057 131.762M250.21 225.37C249.676 225.284 249.171 225.199 248.71 225.116C245.334 228.493 241.769 226.782 239.172 225.535C238.376 225.153 237.67 224.814 237.089 224.679M250.21 225.37C234.61 199.37 238.877 152.132 244.21 132.389M231.71 129.68C221.129 141.534 207.392 177.13 237.089 224.679M231.71 129.68C231.022 129.123 231.278 128.391 231.551 127.616M237.089 224.679C199.889 169.701 216.937 136.801 231.551 127.616M231.551 127.616L231.553 127.61M231.778 125.776C231.122 125.93 229.386 126.443 228.71 126.633M284.205 390V397.5M289.205 391V397.5M294.205 390V397.5M215.95 390V397.5M210.95 391V397.5M205.95 390V397.5M168.905 305.27C168.177 306.455 167.105 307.357 165.768 307.309C162.311 307.184 165.174 301.002 166.509 298.48C164.98 301.319 163.976 302.065 160.815 302.709C157.655 303.352 164.471 290.362 167.762 285.56C165.669 284.32 167.343 281.108 168.351 279.89C173.382 277.978 178.82 280.551 180.91 282.076C183.391 283.422 180.93 286.176 179.389 287.385C183.356 297.073 182.502 300.567 181.579 301.103C179.599 301.173 178.76 300.369 178.471 299.525M168.905 305.27C169.802 303.81 170.176 301.921 169.877 300.858C169.647 302.025 169.156 303.692 168.905 305.27ZM173.968 301.371C173.953 301.454 173.937 301.536 173.922 301.617C172.737 307.82 174.119 310.089 170.716 309.763C168.677 309.567 168.549 307.509 168.905 305.27M173.922 301.617C173.716 303.952 173.16 307.56 175.635 309.524C179.048 312.233 179.11 309.885 178.471 299.525M178.471 299.525C178.446 299.116 178.419 298.694 178.392 298.259C178.32 298.606 178.316 299.072 178.471 299.525ZM331.588 306.27C332.316 307.455 333.388 308.357 334.725 308.309C338.183 308.184 335.319 302.002 333.984 299.48C335.514 302.319 336.518 303.065 339.678 303.709C342.838 304.352 336.022 291.362 332.731 286.56C334.824 285.32 333.15 282.108 332.142 280.89C327.111 278.978 321.673 281.551 319.583 283.076C317.102 284.422 319.564 287.176 321.105 288.385C317.137 298.073 317.991 301.567 318.914 302.103C320.894 302.173 321.734 301.369 322.022 300.525M331.588 306.27C330.691 304.81 330.317 302.921 330.616 301.858C330.847 303.025 331.337 304.692 331.588 306.27ZM326.525 302.371C326.54 302.454 326.556 302.536 326.571 302.617C327.757 308.82 326.374 311.089 329.777 310.763C331.817 310.567 331.944 308.509 331.588 306.27M326.571 302.617C326.777 304.952 327.333 308.56 324.858 310.524C321.445 313.233 321.383 310.885 322.022 300.525M322.022 300.525C322.048 300.116 322.074 299.694 322.101 299.259C322.173 299.606 322.177 300.072 322.022 300.525ZM232.706 258.5H267.206C267.706 261.5 268.706 270.4 268.706 276L264.359 285.5H236.705L232.706 276V258.5ZM256.205 380V405H309.205C310.705 399.333 311.105 387.6 298.705 390C291.872 389.833 278.505 390.7 281.705 387.5V380H256.205ZM243.95 380V405H190.95C189.45 399.333 189.05 387.6 201.45 390C208.283 389.833 221.65 390.7 218.45 387.5V380H243.95ZM213.205 222C198.648 228.384 168.867 249.518 166.205 282.984L180.763 285C190.884 267.36 211.542 234.802 213.205 245.688V222ZM287.65 221.604C301.866 228.139 330.832 249.517 332.979 282.751L318.646 284.548C308.948 266.909 289.106 234.326 287.318 245.101L287.65 221.604ZM231.705 227.5L237.205 244H262.705L269.205 227.5L262.705 225.5C258.539 226.167 250.005 227.1 249.205 225.5C248.205 223.5 247.705 231 237.205 225.5L231.705 227.5Z" stroke="black" stroke-width="2"/>
</svg>
