<svg width="190" height="82" viewBox="0 0 190 82" fill="none" xmlns="http://www.w3.org/2000/svg">
<path d="M80.16 75.9172C78.96 73.6772 78.2 71.1972 77.88 68.4772C77.56 65.6772 77.4 61.8372 77.4 56.9572C77.4 52.3172 76.76 48.2772 75.48 44.8372C74.2 41.3972 71.56 39.6772 67.56 39.6772C66.04 39.6772 64.52 40.1572 63 41.1172C61.56 41.9972 60.48 43.1172 59.76 44.4772C58.64 46.6372 57.88 48.9972 57.48 51.5572C57.08 54.0372 56.88 56.9172 56.88 60.1972C56.88 62.2772 57 64.3972 57.24 66.5572C57.24 67.1972 57.28 68.2372 57.36 69.6772C57.52 71.0372 57.6 72.2772 57.6 73.3972C57.6 78.1972 55.92 80.5972 52.56 80.5972C48.16 80.5972 45.84 78.2772 45.6 73.6372C45.6 70.3572 45.64 68.5972 45.72 68.3572V63.1972C45.72 60.3172 45.6 57.5172 45.36 54.7972C45.12 52.0772 44.84 50.0372 44.52 48.6772C43.8 46.0372 42.84 43.9972 41.64 42.5572C40.52 41.1172 38.72 40.3972 36.24 40.3972C32.72 40.3972 29.88 41.9172 27.72 44.9572C26.2 47.3572 25.2 50.2772 24.72 53.7172C24.24 58.1172 23.88 61.5972 23.64 64.1572C23.48 66.6372 23.4 69.5172 23.4 72.7972C23.4 75.1172 23 76.9972 22.2 78.4372C21.48 79.8772 20.08 80.5972 18 80.5972C16.48 80.5972 14.88 80.1972 13.2 79.3972C11.6 78.5172 10.8 77.3572 10.8 75.9172C10.8 74.3972 10.96 72.8772 11.28 71.3572C12 66.7972 12.36 58.6372 12.36 46.8772C12.36 44.9572 11.88 43.1172 10.92 41.3572C10.04 39.5172 8.96 38.5972 7.68 38.5972C7.36 38.5972 6.76 38.7572 5.88 39.0772C5.08 39.3972 4.48 39.5572 4.08 39.5572C3.04 39.5572 2.08 39.0772 1.2 38.1172C0.4 37.1572 0 36.3572 0 35.7172C0 33.7172 0.96 32.0372 2.88 30.6772C4.88 29.2372 6.96 28.5172 9.12 28.5172C12.08 28.5172 14.6 29.4372 16.68 31.2772C18.76 33.1172 20.36 35.6772 21.48 38.9572C23.32 35.7572 25.8 33.1972 28.92 31.2772C32.04 29.2772 35.52 28.2772 39.36 28.2772C41.76 28.2772 43.68 28.5972 45.12 29.2372C46.64 29.7972 47.88 30.6372 48.84 31.7572C49.8 32.7972 51.04 34.3972 52.56 36.5572C54.56 33.9972 57.12 31.9972 60.24 30.5572C63.44 29.1172 66.72 28.3972 70.08 28.3972C74.08 28.3972 77.68 30.0372 80.88 33.3172C84.08 36.5172 86.24 40.2372 87.36 44.4772C87.92 46.6372 88.2 50.7972 88.2 56.9572L88.68 63.9172C89.08 68.0772 90.44 70.5972 92.76 71.4772C95.48 72.2772 107.029 67.5972 107.029 68.4772C107.029 70.3972 110.989 76.7372 110.029 77.6172C109.309 78.0972 109.809 76.0601 108.529 76.6201C107.249 77.1801 90.7492 81.1172 90.0292 81.1172C85.7092 81.1172 82 79.0372 80.16 75.9172Z" fill="#506916"/>
<path d="M96.8306 39.5972C95.7106 39.4372 94.7906 38.9572 94.0706 38.1572C93.4306 37.3572 93.1106 36.3972 93.1106 35.2772C93.1106 34.7172 93.2306 34.1172 93.4706 33.4772C93.7906 32.8372 94.2306 32.2772 94.7906 31.7972C95.8306 30.7572 98.6306 30.2372 103.191 30.2372C103.831 27.1172 104.151 23.9572 104.151 20.7572C104.151 19.5572 104.111 18.5172 104.031 17.6372C103.951 16.7572 103.911 16.0772 103.911 15.5972C103.911 13.8372 104.551 12.5172 105.831 11.6372C107.191 10.7572 108.711 10.3172 110.391 10.3172C112.471 10.3172 113.871 10.8372 114.591 11.8772C115.391 12.9172 115.791 14.8372 115.791 17.6372C115.791 21.7972 115.431 25.8772 114.711 29.8772C115.991 29.8772 117.751 29.7972 119.991 29.6372C123.031 29.4772 125.231 29.3972 126.591 29.3972C127.951 29.3972 129.111 29.7572 130.071 30.4772C131.111 31.1172 131.631 32.0372 131.631 33.2372C131.631 36.3572 130.231 38.1972 127.431 38.7572C124.471 39.4772 119.871 39.9172 113.631 40.0772C113.391 43.1972 113.271 46.5972 113.271 50.2772C113.271 56.0372 113.631 60.7572 114.351 64.4372C114.831 66.9972 115.631 68.8772 116.751 70.0772C117.951 71.1972 119.711 71.7572 122.031 71.7572C123.391 71.7572 124.791 71.3972 126.231 70.6772C127.529 70.6201 128.052 70.344 128.871 69.8372C130.029 69.1201 140.084 62.8972 140.564 63.6172C141.124 64.3372 141.029 73.4172 141.029 74.6172C141.029 76.8572 133.029 79.4772 130.029 80.3972C126.79 81.3905 123.031 81.5972 119.271 81.5972C116.951 81.5972 114.591 81.0372 112.191 79.9172C109.871 78.7972 107.911 77.3972 106.311 75.7172C106.071 75.4772 105.631 74.5572 104.991 72.9572C104.351 71.3572 103.791 69.6372 103.311 67.7972C102.511 64.0372 102.111 58.7572 102.111 51.9572C102.111 48.9972 102.271 45.0372 102.591 40.0772L96.8306 39.5972Z" fill="#506916"/>
<path d="M146.369 4.92012C146.369 7.00012 146.329 9.44012 146.249 12.2401C146.169 14.9601 146.089 17.0401 146.009 18.4801C145.769 22.5601 145.649 26.6401 145.649 30.7201C145.649 33.7601 145.769 36.9201 146.009 40.2001C148.489 36.6001 151.169 33.9601 154.049 32.2801C156.929 30.6001 160.409 29.7601 164.489 29.7601C167.449 29.7601 170.209 31.0801 172.769 33.7201C175.329 36.3601 176.969 39.4401 177.689 42.9601C177.929 46.0801 178.049 49.8801 178.049 54.3601C178.049 57.2401 178.209 61.0001 178.529 65.6401C178.689 67.4001 179.129 69.0401 179.849 70.5601C180.649 72.0801 181.769 72.8401 183.209 72.8401C183.929 72.8401 184.489 72.8001 184.889 72.7201C185.369 72.6401 185.809 72.6001 186.209 72.6001C187.329 72.6001 188.089 72.8801 188.489 73.4401C188.969 74.0001 189.209 74.8001 189.209 75.8401C189.209 77.7601 188.249 79.2001 186.329 80.1601C184.409 81.1201 182.649 81.6001 181.049 81.6001C175.289 81.6001 171.329 79.2001 169.169 74.4001C167.969 71.6801 167.209 68.1601 166.889 63.8401C166.569 59.4401 166.409 54.3201 166.409 48.4801C166.409 42.7201 164.449 39.8401 160.529 39.8401C158.369 39.8401 156.169 41.0001 153.929 43.3201C151.769 45.5601 149.969 48.5601 148.529 52.3201C147.089 56.0001 146.369 59.8401 146.369 63.8401L146.489 76.3201C146.489 78.0801 145.809 79.4001 144.449 80.2801C143.089 81.0801 141.809 81.4801 140.609 81.4801C138.849 81.4801 137.249 80.9601 135.809 79.9201C134.369 78.8001 133.649 77.5601 133.649 76.2001C134.209 70.2001 134.489 60.1601 134.489 46.0801C134.489 43.5201 134.289 34.0401 133.889 17.6401L133.529 6.60012C133.529 4.84012 134.329 3.32012 135.929 2.04012C137.529 0.68012 139.329 0.00012207 141.329 0.00012207C143.089 0.00012207 144.369 0.400122 145.169 1.20012C145.969 2.00012 146.369 3.24012 146.369 4.92012Z" fill="#506916"/>
</svg>
