<svg width="343" height="352" viewBox="0 0 343 352" fill="none" xmlns="http://www.w3.org/2000/svg">
<path d="M204.906 105.44C188.024 105.44 180.596 113.28 154.259 113.28C127.923 113.28 120.494 105.44 103.612 105.44C86.7295 105.44 74.5742 113.28 61.406 113.28C58.6075 113.28 55.8378 113.022 53.1335 112.52C53.0776 112.51 53.0217 112.499 52.9658 112.489V301.44C52.9658 309.757 56.5231 317.734 62.8553 323.615C69.1874 329.496 77.7756 332.8 86.7306 332.8H221.79C230.745 332.8 239.333 329.496 245.665 323.615C251.997 317.734 255.554 309.757 255.554 301.44L255.553 254.401V160.32L255.554 112.488C252.796 113.011 249.969 113.28 247.112 113.28C233.944 113.28 221.789 105.44 204.906 105.44Z" fill="white"/>
<path d="M154.259 113.28C180.596 113.28 188.024 105.44 204.906 105.44C221.789 105.44 233.944 113.28 247.112 113.28C249.969 113.28 252.796 113.011 255.554 112.488C263.602 110.962 271.061 107.274 276.956 101.799C284.871 94.4473 289.318 84.4766 289.318 74.0801C289.318 63.6836 284.871 53.7129 276.956 46.3614C269.041 39.01 258.306 34.88 247.112 34.88C233.944 34.88 221.789 42.72 204.906 42.72C188.024 42.72 180.596 19.2 154.259 19.2C127.923 19.2 119.313 42.72 103.612 42.72C87.9113 42.72 74.5742 34.88 61.406 34.88C50.2122 34.88 39.477 39.01 31.5618 46.3614C23.6467 53.7129 19.2 63.6836 19.2 74.0801C19.2 84.4766 23.6467 94.4473 31.5618 101.799C37.4573 107.274 44.9172 110.963 52.9658 112.489C53.0217 112.499 53.0776 112.51 53.1335 112.52C55.8378 113.022 58.6075 113.28 61.406 113.28C74.5742 113.28 86.7295 105.44 103.612 105.44C120.494 105.44 127.923 113.28 154.259 113.28Z" fill="white"/>
<path d="M255.553 160.32H272.436C285.868 160.32 298.75 165.276 308.249 174.098C317.747 182.92 323.083 194.885 323.083 207.36C323.083 219.836 317.747 231.801 308.249 240.623C298.75 249.445 285.868 254.401 272.436 254.401H255.553M255.554 112.488L255.553 160.32V254.401L255.554 301.44M31.5618 101.799C23.6467 94.4473 19.2 84.4766 19.2 74.0801C19.2 63.6836 23.6467 53.7129 31.5618 46.3614C39.477 39.01 50.2122 34.88 61.406 34.88C74.5742 34.88 87.9113 42.72 103.612 42.72C119.313 42.72 127.923 19.2 154.259 19.2C180.596 19.2 188.024 42.72 204.906 42.72C221.789 42.72 233.944 34.88 247.112 34.88C258.306 34.88 269.041 39.01 276.956 46.3614C284.871 53.7129 289.318 63.6836 289.318 74.0801C289.318 84.4766 284.871 94.4473 276.956 101.799M53.1335 112.52C53.0776 112.51 53.0217 112.499 52.9658 112.489C44.9172 110.963 37.4573 107.274 31.5618 101.799M247.112 113.28C233.944 113.28 221.789 105.44 204.906 105.44C188.024 105.44 180.596 113.28 154.259 113.28C127.923 113.28 120.494 105.44 103.612 105.44C86.7295 105.44 74.5742 113.28 61.406 113.28C58.6075 113.28 55.8378 113.022 53.1335 112.52C45.0209 111.014 37.4982 107.312 31.5618 101.799M276.956 101.799C269.041 109.15 258.306 113.28 247.112 113.28M276.956 101.799C271.061 107.274 263.602 110.962 255.554 112.488M247.112 113.28C249.969 113.28 252.796 113.011 255.554 112.488M52.9658 112.489V301.44C52.9658 309.757 56.5231 317.734 62.8553 323.615C69.1874 329.496 77.7756 332.8 86.7306 332.8H221.79C230.745 332.8 239.333 329.496 245.665 323.615C251.997 317.734 255.554 309.757 255.554 301.44M255.554 301.44V112.488" stroke="black" stroke-width="38.4" stroke-linecap="round" stroke-linejoin="round"/>
<path d="M136.581 221.454C136.581 210.11 180.101 209.461 180.101 195.2C180.101 180.939 180.101 163.2 180.101 163.2H201.861V283.52H180.101C180.101 283.52 180.101 195.31 180.101 223.72C180.101 234.141 136.581 230.04 136.581 252.891C136.581 279.631 136.581 283.52 136.581 283.52H114.821V163.2H136.581C136.581 163.2 136.581 206.221 136.581 221.454Z" fill="black"/>
</svg>
