<svg width="339" height="348" viewBox="0 0 339 348" fill="none" xmlns="http://www.w3.org/2000/svg">
<path d="M202.533 104.338C185.867 104.338 178.533 112.078 152.533 112.078C126.533 112.078 119.2 104.338 102.533 104.338C85.8666 104.338 73.8666 112.078 60.8666 112.078C58.1039 112.078 55.3696 111.823 52.6999 111.328C52.6447 111.317 52.5895 111.307 52.5343 111.297V297.834C52.5343 306.045 56.0462 313.92 62.2974 319.726C68.5486 325.532 77.0271 328.793 85.8676 328.793H219.201C228.042 328.793 236.52 325.532 242.771 319.726C249.022 313.92 252.534 306.045 252.534 297.834L252.533 251.395V158.517L252.534 111.296C249.812 111.812 247.02 112.078 244.2 112.078C231.2 112.078 219.2 104.338 202.533 104.338Z" fill="white"/>
<path d="M152.533 112.078C178.533 112.078 185.867 104.338 202.533 104.338C219.2 104.338 231.2 112.078 244.2 112.078C247.02 112.078 249.812 111.812 252.534 111.296C260.479 109.79 267.843 106.148 273.663 100.743C281.477 93.4858 285.867 83.6425 285.867 73.3789C285.867 63.1152 281.477 53.2719 273.663 46.0144C265.849 38.7569 255.251 34.6796 244.2 34.6796C231.2 34.6796 219.2 42.4195 202.533 42.4195C185.867 42.4195 178.533 19.2 152.533 19.2C126.533 19.2 118.033 42.4195 102.533 42.4195C87.0333 42.4195 73.8666 34.6796 60.8666 34.6796C49.8159 34.6796 39.2179 38.7569 31.4038 46.0144C23.5898 53.2719 19.2 63.1152 19.2 73.3789C19.2 83.6425 23.5898 93.4858 31.4038 100.743C37.2239 106.149 44.5886 109.79 52.5343 111.297C52.5895 111.307 52.6447 111.317 52.6999 111.328C55.3696 111.823 58.1039 112.078 60.8666 112.078C73.8666 112.078 85.8666 104.338 102.533 104.338C119.2 104.338 126.533 112.078 152.533 112.078Z" fill="white"/>
<path d="M252.533 158.517H269.2C282.461 158.517 295.178 163.41 304.555 172.119C313.932 180.828 319.2 192.64 319.2 204.956C319.2 217.273 313.932 229.085 304.555 237.794C295.178 246.503 282.461 251.395 269.2 251.395H252.533M252.534 111.296L252.533 158.517V251.395L252.534 297.834M31.4038 100.743C23.5898 93.4858 19.2 83.6425 19.2 73.3789C19.2 63.1152 23.5898 53.2719 31.4038 46.0144C39.2179 38.7569 49.8159 34.6796 60.8666 34.6796C73.8666 34.6796 87.0333 42.4195 102.533 42.4195C118.033 42.4195 126.533 19.2 152.533 19.2C178.533 19.2 185.867 42.4195 202.533 42.4195C219.2 42.4195 231.2 34.6796 244.2 34.6796C255.251 34.6796 265.849 38.7569 273.663 46.0144C281.477 53.2719 285.867 63.1152 285.867 73.3789C285.867 83.6425 281.477 93.4858 273.663 100.743M52.6999 111.328C52.6447 111.317 52.5895 111.307 52.5343 111.297C44.5886 109.79 37.2239 106.149 31.4038 100.743M244.2 112.078C231.2 112.078 219.2 104.338 202.533 104.338C185.867 104.338 178.533 112.078 152.533 112.078C126.533 112.078 119.2 104.338 102.533 104.338C85.8666 104.338 73.8666 112.078 60.8666 112.078C58.1039 112.078 55.3696 111.823 52.6999 111.328C44.6909 109.841 37.2643 106.186 31.4038 100.743M273.663 100.743C265.849 108.001 255.251 112.078 244.2 112.078M273.663 100.743C267.843 106.148 260.479 109.79 252.534 111.296M244.2 112.078C247.02 112.078 249.812 111.812 252.534 111.296M52.5343 111.297V297.834C52.5343 306.045 56.0462 313.92 62.2974 319.726C68.5486 325.532 77.0271 328.793 85.8676 328.793H219.201C228.042 328.793 236.52 325.532 242.771 319.726C249.022 313.92 252.534 306.045 252.534 297.834M252.534 297.834V111.296" stroke="#506916" stroke-width="38.4" stroke-linecap="round" stroke-linejoin="round"/>
<path d="M136.095 160.346V214.514C136.14 214.471 136.184 214.427 136.229 214.384C137.522 213.155 139.316 212.1 141.371 211.154C145.476 209.264 150.933 207.67 156.264 206.022C161.65 204.357 166.921 202.634 170.844 200.477C174.812 198.295 177.032 195.875 177.032 192.951V160.346H200.541V281.157H177.032V280.142H178.046L177.032 280.141V225.002C176.963 225.059 176.894 225.116 176.823 225.172C175.516 226.192 173.713 227.01 171.669 227.73C167.616 229.159 162.103 230.364 156.844 231.879C151.49 233.421 146.268 235.311 142.394 238.152C138.566 240.959 136.095 244.657 136.095 249.905V281.157H112.586V160.346H136.095Z" fill="#506916" stroke="#506916" stroke-width="2.02752"/>
</svg>
