<svg width="1024" height="1024" viewBox="0 0 1024 1024" fill="none" xmlns="http://www.w3.org/2000/svg">
<rect width="1024" height="1024" fill="#FF4320"/>
<path d="M605.13 370.88C571.365 370.88 556.508 386.56 503.835 386.56C451.162 386.56 436.306 370.88 402.541 370.88C368.776 370.88 344.466 386.56 318.129 386.56C312.532 386.56 306.993 386.044 301.584 385.04C301.472 385.019 301.361 384.998 301.249 384.977V762.88C301.249 779.515 308.363 795.468 321.028 807.23C333.692 818.992 350.868 825.6 368.778 825.6H638.896C656.806 825.6 673.983 818.992 686.647 807.23C699.311 795.468 706.426 779.515 706.426 762.88L706.424 668.801V480.64L706.426 384.976C700.91 386.022 695.255 386.56 689.541 386.56C663.205 386.56 638.894 370.88 605.13 370.88Z" fill="white"/>
<path d="M503.835 386.56C556.508 386.56 571.365 370.88 605.13 370.88C638.894 370.88 663.205 386.56 689.541 386.56C695.255 386.56 700.91 386.022 706.426 384.976C722.522 381.924 737.44 374.547 749.23 363.597C765.06 348.894 773.953 328.953 773.953 308.16C773.953 287.367 765.06 267.426 749.23 252.723C733.399 238.02 711.929 229.76 689.541 229.76C663.205 229.76 638.894 245.44 605.13 245.44C571.365 245.44 556.508 198.4 503.835 198.4C451.162 198.4 433.942 245.44 402.541 245.44C371.14 245.44 344.466 229.76 318.129 229.76C295.742 229.76 274.271 238.02 258.441 252.723C242.611 267.426 233.717 287.367 233.717 308.16C233.717 328.953 242.611 348.894 258.441 363.597C270.232 374.548 285.152 381.925 301.249 384.977C301.361 384.998 301.472 385.019 301.584 385.04C306.993 386.044 312.532 386.56 318.129 386.56C344.466 386.56 368.776 370.88 402.541 370.88C436.306 370.88 451.162 386.56 503.835 386.56Z" fill="white"/>
<path d="M706.424 480.64H740.189C767.053 480.64 792.818 490.552 811.814 508.196C830.811 525.839 841.483 549.769 841.483 574.721C841.483 599.672 830.811 623.602 811.814 641.245C792.818 658.889 767.053 668.801 740.189 668.801H706.424M706.426 384.976L706.424 480.64V668.801L706.426 762.88M258.441 363.597C242.611 348.894 233.717 328.953 233.717 308.16C233.717 287.367 242.611 267.426 258.441 252.723C274.271 238.02 295.742 229.76 318.129 229.76C344.466 229.76 371.14 245.44 402.541 245.44C433.942 245.44 451.162 198.4 503.835 198.4C556.508 198.4 571.365 245.44 605.13 245.44C638.894 245.44 663.205 229.76 689.541 229.76C711.929 229.76 733.399 238.02 749.23 252.723C765.06 267.426 773.953 287.367 773.953 308.16C773.953 328.953 765.06 348.894 749.23 363.597M301.584 385.04C301.472 385.019 301.361 384.998 301.249 384.977C285.152 381.925 270.232 374.548 258.441 363.597M689.541 386.56C663.205 386.56 638.894 370.88 605.13 370.88C571.365 370.88 556.508 386.56 503.835 386.56C451.162 386.56 436.306 370.88 402.541 370.88C368.776 370.88 344.466 386.56 318.129 386.56C312.532 386.56 306.993 386.044 301.584 385.04C285.359 382.027 270.314 374.624 258.441 363.597M749.23 363.597C733.399 378.3 711.929 386.56 689.541 386.56M749.23 363.597C737.44 374.547 722.522 381.924 706.426 384.976M689.541 386.56C695.255 386.56 700.91 386.022 706.426 384.976M301.249 384.977V762.88C301.249 779.515 308.363 795.468 321.028 807.23C333.692 818.992 350.868 825.6 368.778 825.6H638.896C656.806 825.6 673.983 818.992 686.647 807.23C699.311 795.468 706.426 779.515 706.426 762.88M706.426 762.88V384.976" stroke="black" stroke-width="76.8" stroke-linecap="round" stroke-linejoin="round"/>
<path d="M468.48 602.908C468.48 580.22 555.52 578.922 555.52 550.4C555.52 521.878 555.52 486.4 555.52 486.4H599.04V727.04H555.52C555.52 727.04 555.52 550.619 555.52 607.439C555.52 628.282 468.48 620.08 468.48 665.781C468.48 719.261 468.48 727.04 468.48 727.04H424.96V486.4H468.48C468.48 486.4 468.48 572.441 468.48 602.908Z" fill="black"/>
</svg>
