<svg width="500" height="500" viewBox="0 0 500 500" fill="none" xmlns="http://www.w3.org/2000/svg">
<rect width="500" height="500" fill="#D869E8"/>
<path d="M283.706 179.24C266.824 179.24 259.396 187.08 233.059 187.08C206.723 187.08 199.294 179.24 182.412 179.24C165.53 179.24 153.374 187.08 140.206 187.08C137.408 187.08 134.638 186.822 131.934 186.32C131.878 186.31 131.822 186.299 131.766 186.289V375.24C131.766 383.557 135.323 391.534 141.655 397.415C147.987 403.296 156.576 406.6 165.531 406.6H300.59C309.545 406.6 318.133 403.296 324.465 397.415C330.797 391.534 334.354 383.557 334.354 375.24L334.353 328.201V234.12L334.354 186.288C331.596 186.811 328.769 187.08 325.912 187.08C312.744 187.08 300.589 179.24 283.706 179.24Z" fill="white"/>
<path d="M233.059 187.08C259.396 187.08 266.824 179.24 283.706 179.24C300.589 179.24 312.744 187.08 325.912 187.08C328.769 187.08 331.596 186.811 334.354 186.288C342.402 184.762 349.861 181.074 355.756 175.599C363.671 168.247 368.118 158.277 368.118 147.88C368.118 137.484 363.671 127.513 355.756 120.161C347.841 112.81 337.106 108.68 325.912 108.68C312.744 108.68 300.589 116.52 283.706 116.52C266.824 116.52 259.396 93 233.059 93C206.723 93 198.113 116.52 182.412 116.52C166.711 116.52 153.374 108.68 140.206 108.68C129.012 108.68 118.277 112.81 110.362 120.161C102.447 127.513 98 137.484 98 147.88C98 158.277 102.447 168.247 110.362 175.599C116.257 181.074 123.717 184.763 131.766 186.289C131.822 186.299 131.878 186.31 131.934 186.32C134.638 186.822 137.408 187.08 140.206 187.08C153.374 187.08 165.53 179.24 182.412 179.24C199.294 179.24 206.723 187.08 233.059 187.08Z" fill="white"/>
<path d="M334.353 234.12H351.236C364.668 234.12 377.55 239.076 387.049 247.898C396.547 256.72 401.883 268.685 401.883 281.16C401.883 293.636 396.547 305.601 387.049 314.423C377.55 323.245 364.668 328.201 351.236 328.201H334.353M334.354 186.288L334.353 234.12V328.201L334.354 375.24M110.362 175.599C102.447 168.247 98 158.277 98 147.88C98 137.484 102.447 127.513 110.362 120.161C118.277 112.81 129.012 108.68 140.206 108.68C153.374 108.68 166.711 116.52 182.412 116.52C198.113 116.52 206.723 93 233.059 93C259.396 93 266.824 116.52 283.706 116.52C300.589 116.52 312.744 108.68 325.912 108.68C337.106 108.68 347.841 112.81 355.756 120.161C363.671 127.513 368.118 137.484 368.118 147.88C368.118 158.277 363.671 168.247 355.756 175.599M131.934 186.32C131.878 186.31 131.822 186.299 131.766 186.289C123.717 184.763 116.257 181.074 110.362 175.599M325.912 187.08C312.744 187.08 300.589 179.24 283.706 179.24C266.824 179.24 259.396 187.08 233.059 187.08C206.723 187.08 199.294 179.24 182.412 179.24C165.53 179.24 153.374 187.08 140.206 187.08C137.408 187.08 134.638 186.822 131.934 186.32C123.821 184.814 116.298 181.112 110.362 175.599M355.756 175.599C347.841 182.95 337.106 187.08 325.912 187.08M355.756 175.599C349.861 181.074 342.402 184.762 334.354 186.288M325.912 187.08C328.769 187.08 331.596 186.811 334.354 186.288M131.766 186.289V375.24C131.766 383.557 135.323 391.534 141.655 397.415C147.987 403.296 156.576 406.6 165.531 406.6H300.59C309.545 406.6 318.133 403.296 324.465 397.415C330.797 391.534 334.354 383.557 334.354 375.24M334.354 375.24V186.288" stroke="black" stroke-width="38.4" stroke-linecap="round" stroke-linejoin="round"/>
<path d="M215.381 295.254C215.381 283.91 258.901 283.261 258.901 269C258.901 254.739 258.901 237 258.901 237H280.661V357.32H258.901C258.901 357.32 258.901 269.11 258.901 297.52C258.901 307.941 215.381 303.84 215.381 326.691C215.381 353.431 215.381 357.32 215.381 357.32H193.621V237H215.381C215.381 237 215.381 280.02 215.381 295.254Z" fill="black"/>
</svg>
