<svg width="300" height="300" viewBox="0 0 300 300" fill="none" xmlns="http://www.w3.org/2000/svg">
<path d="M171.976 278.301L150.217 300.001L128.517 278.242L150.275 256.541L171.976 278.301ZM232.584 253.024L211.215 274.484L150.674 214.203L89.6328 274.984L68.2637 253.524L129.214 192.834L129.117 192.738L150.485 171.277L232.584 253.024ZM128.712 150.106L107.252 171.475L107.155 171.378L46.4639 232.328L25.0039 210.96L85.7861 149.917L25.5049 89.377L46.9648 68.0078L128.712 150.106ZM275.238 89.1279L214.956 149.669L275.737 210.711L254.277 232.079L193.587 171.13L193.491 171.226L172.03 149.857L253.777 67.7588L275.238 89.1279ZM43.4561 149.736L21.9893 171.727L0 150.259L21.4668 128.27L43.4561 149.736ZM300 149.237L278.533 171.227L256.543 149.76L278.011 127.77L300 149.237ZM232.581 48.2158L171.632 108.905L171.729 109.002L150.359 130.462L68.2617 48.7148L89.6299 27.2549L150.171 87.5361L211.213 26.7549L232.581 48.2158ZM172.229 21.4678L150.762 43.457L128.772 21.9902L150.239 0L172.229 21.4678Z" fill="#506916"/>
</svg>
