<svg width="673" height="973" viewBox="0 0 673 973" fill="none" xmlns="http://www.w3.org/2000/svg">
<path d="M274.776 966.963C293.006 915.56 305.333 790.232 274.776 739.37C236.58 675.792 175.813 663.618 160.188 629.8C144.562 595.982 127.2 422.834 90.7403 448.536C61.5145 453.947 3.41026 456.653 4.79921 424.188C-2.72426 399.388 3.93106 354.658 90.7403 374.137C104.34 365.57 116.262 333.013 55.1485 271.33C-5.96518 209.646 7.11405 125.687 21.2929 91.4185C30.2632 76.7899 47.8565 68.7549 46.4676 153.643C61.2251 182.952 94.3863 211.539 108.97 91.4185C109.26 58.0519 114.873 -6.24634 135.013 3.49321C160.188 15.6676 164.528 41.3695 144.562 125.238C124.596 209.106 108.97 187.463 108.97 218.575C114.757 249.688 135.534 293.245 172.341 218.575C178.128 178.445 194.39 100.889 213.141 111.711C236.58 125.238 253.942 141.47 213.141 218.575C172.341 295.68 144.562 299.739 144.562 374.137C154.111 394.428 184.681 405.609 193.175 359.257C204.647 327.152 228.767 334.909 228.767 389.017C222.009 448.536 194.912 539.168 211.406 585.161C226.163 613.568 221.301 650.632 264.359 620.331C250.18 595.532 229.114 542.144 258.282 526.994C269.857 529.249 296.825 551.072 312.104 620.331C318.226 635.004 320.42 661.782 327.293 701.237C337.185 762.139 345.6 834.266 344.417 891.833C344.413 891.968 344.41 892.1 344.409 892.227C343.872 917.39 341.494 949.56 336.594 966.963C335.053 972.436 329.354 965.075 327.293 969.5L274.776 966.963Z" fill="#8EC744"/>
<path d="M378.631 969.498H386.444C415.32 951.721 433.949 922.994 445.936 889.688L495.824 792.292C511.45 694.897 488.011 627.261 461.1 565.036C439.572 515.257 452.13 496.499 461.1 493.343C476.379 468.453 490.616 520.848 495.824 550.157C517.526 550.157 488.011 474.405 456.76 421.649C425.509 368.893 428.113 337.78 434.19 332.37C440.266 326.959 449.815 314.784 467.177 337.78C481.066 356.177 486.854 377.911 488.011 386.478C497.04 328.041 451.841 215.134 428.113 165.986C405.195 125.945 411.619 73.5502 417.696 52.3576C437.141 23.1402 451.841 40.1837 456.76 52.3576C461.969 114.582 456.76 143.439 467.177 151.104C477.594 175.994 517.816 79.4119 536.624 33.4196C576.209 0.954479 590.735 32.5178 593.05 52.3576C597.912 93.4804 531.416 132.168 513.186 165.986C510.408 352.119 532.284 380.616 543.569 371.598C594.96 301.257 622.276 319.744 629.51 337.78C637.323 375.656 600.863 386.478 574.821 421.649C553.986 449.785 545.305 519.044 543.569 550.157C567.876 652.963 605.783 597.501 621.698 556.92C641.143 457.36 660.472 460.426 667.706 474.405C686.804 592.091 603.467 627.261 552.25 712.482C511.276 780.659 524.76 794.096 536.624 792.292C592.182 730.609 621.698 749.006 614.753 784.176C527.944 927.564 455.313 952.983 408.146 966.961L378.631 969.498Z" fill="#8EC744"/>
<path d="M336.594 966.963C341.494 949.56 343.872 917.39 344.409 892.227L344.417 891.833C345.011 874.744 380.486 793.199 348.434 736.831C341.368 724.403 331.726 713.962 327.293 701.237C322.256 670.223 316.835 642.119 312.104 620.331C313.964 609.51 327.601 569.454 348.434 601.919C361.104 660.086 386.444 775.519 386.444 773.354C386.444 770.649 439.398 800.409 408.146 652.963C399.465 636.279 386.444 601.56 340.619 565.036C306.58 502.812 338.699 421.649 306.58 421.649C268.094 392.791 243.56 343.191 244.945 314.784C246.33 286.377 259.033 251.207 298.767 337.78C312.656 331.468 328.108 304.504 278.801 247.149C259.703 233.621 226.194 202.238 244.945 184.924C251.539 164.633 273.096 145.424 306.58 230.916C319.89 225.054 332.102 215.766 316.129 165.986C296.163 103.761 380.739 124.051 348.434 230.916C341.427 274.203 333.317 356.177 356.929 337.78C366.189 323.351 383.493 285.025 378.631 247.149C372.555 199.804 429.849 228.21 408.146 299.904C404.798 341.388 348.434 453.12 348.434 474.405C348.434 495.689 365.797 515.345 378.631 502.812C391.466 490.278 386.444 445.997 408.146 445.997C424.641 445.997 431.758 466.559 408.146 565.036C428.113 595.247 467.871 671.9 467.177 736.831C466.665 784.663 463.139 841.891 445.936 889.688C433.949 922.994 415.32 951.721 386.444 969.498H378.631L336.594 966.963Z" fill="#5A8F47"/>
<path d="M312.104 620.331C296.825 551.072 269.857 529.249 258.282 526.994C229.114 542.144 250.18 595.532 264.359 620.331C221.301 650.632 226.163 613.568 211.406 585.161C194.912 539.168 222.009 448.536 228.767 389.017C228.767 334.909 204.647 327.152 193.175 359.257C184.681 405.609 154.111 394.428 144.562 374.137C144.562 299.739 172.341 295.68 213.141 218.575C253.942 141.47 236.58 125.238 213.141 111.711C194.39 100.889 178.128 178.445 172.341 218.575C135.534 293.245 114.757 249.688 108.97 218.575C108.97 187.463 124.596 209.106 144.562 125.238C164.528 41.3695 160.188 15.6676 135.013 3.49321C114.873 -6.24634 109.26 58.0519 108.97 91.4185C94.3863 211.539 61.2251 182.952 46.4676 153.643C47.8565 68.7549 30.2632 76.7899 21.2929 91.4185C7.11405 125.687 -5.96518 209.646 55.1485 271.33C116.262 333.013 104.34 365.57 90.7403 374.137C3.93106 354.658 -2.72426 399.388 4.79921 424.188C3.41026 456.653 61.5145 453.947 90.7403 448.536C127.2 422.834 144.562 595.982 160.188 629.8C175.813 663.618 236.58 675.792 274.776 739.37C305.333 790.232 293.006 915.56 274.776 966.963L327.293 969.5C329.354 965.075 335.053 972.436 336.594 966.963M312.104 620.331C313.964 609.51 327.601 569.454 348.434 601.919C361.104 660.086 386.444 775.519 386.444 773.354C386.444 770.649 439.398 800.409 408.146 652.963C399.465 636.279 386.444 601.56 340.619 565.036C306.58 502.812 338.699 421.649 306.58 421.649C268.094 392.791 243.56 343.191 244.945 314.784C246.33 286.377 259.033 251.207 298.767 337.78C312.656 331.468 328.108 304.504 278.801 247.149C259.703 233.621 226.194 202.238 244.945 184.924C251.539 164.633 273.096 145.424 306.58 230.916C319.89 225.054 332.102 215.766 316.129 165.986C296.163 103.761 380.739 124.051 348.434 230.916C341.427 274.203 333.317 356.177 356.929 337.78C366.189 323.351 383.493 285.025 378.631 247.149C372.555 199.804 429.849 228.21 408.146 299.904C404.798 341.388 348.434 453.12 348.434 474.405C348.434 495.689 365.797 515.345 378.631 502.812C391.466 490.278 386.444 445.997 408.146 445.997C424.641 445.997 431.758 466.559 408.146 565.036C428.113 595.247 467.871 671.9 467.177 736.831C466.665 784.663 463.139 841.891 445.936 889.688M312.104 620.331C318.226 635.004 320.42 661.782 327.293 701.237M312.104 620.331C316.835 642.119 322.256 670.223 327.293 701.237M336.594 966.963C341.494 949.56 343.872 917.39 344.409 892.227M336.594 966.963L378.631 969.498M344.409 892.227C344.41 892.1 344.413 891.968 344.417 891.833M344.409 892.227C344.412 892.096 344.415 891.965 344.417 891.833M344.409 892.227L344.417 891.833M378.631 969.498H386.444C415.32 951.721 433.949 922.994 445.936 889.688M378.631 969.498L408.146 966.961C455.313 952.983 527.944 927.564 614.753 784.176C621.698 749.006 592.182 730.609 536.624 792.292C524.76 794.096 511.276 780.659 552.25 712.482C603.467 627.261 686.804 592.091 667.706 474.405C660.472 460.426 641.143 457.36 621.698 556.92C605.783 597.501 567.876 652.963 543.569 550.157C545.305 519.044 553.986 449.785 574.821 421.649C600.863 386.478 637.323 375.656 629.51 337.78C622.276 319.744 594.96 301.257 543.569 371.598C532.284 380.616 510.408 352.119 513.186 165.986C531.416 132.168 597.912 93.4804 593.05 52.3576C590.735 32.5178 576.209 0.954479 536.624 33.4196C517.816 79.4119 477.594 175.994 467.177 151.104C456.76 143.439 461.969 114.582 456.76 52.3576C451.841 40.1837 437.141 23.1402 417.696 52.3576C411.619 73.5502 405.195 125.945 428.113 165.986C451.841 215.134 497.04 328.041 488.011 386.478C486.854 377.911 481.066 356.177 467.177 337.78C449.815 314.784 440.266 326.959 434.19 332.37C428.113 337.78 425.509 368.893 456.76 421.649C488.011 474.405 517.526 550.157 495.824 550.157C490.616 520.848 476.379 468.453 461.1 493.343C452.13 496.499 439.572 515.257 461.1 565.036C488.011 627.261 511.45 694.897 495.824 792.292L445.936 889.688M327.293 701.237C337.185 762.139 345.6 834.266 344.417 891.833M327.293 701.237C331.726 713.962 341.368 724.403 348.434 736.831C380.486 793.199 345.011 874.744 344.417 891.833" stroke="#0D0D0C" stroke-width="5"/>
</svg>
