<svg width="1536" height="1576" viewBox="0 0 1536 1576" fill="none" xmlns="http://www.w3.org/2000/svg">
<path d="M909.039 1569.27C867.276 1485.76 839.037 1282.17 909.039 1199.54C996.54 1096.26 1135.75 1076.48 1171.54 1021.55C1207.34 966.609 1247.11 685.331 1330.64 727.083C1397.59 735.874 1530.7 740.269 1527.51 687.53C1544.75 647.243 1529.5 574.579 1330.64 606.223C1299.48 592.305 1272.17 539.417 1412.17 439.212C1552.17 339.007 1522.21 202.617 1489.73 146.948C1469.18 123.184 1428.88 110.131 1432.06 248.032C1398.25 295.643 1322.28 342.082 1288.87 146.948C1288.21 92.7438 1275.35 -11.7084 1229.21 4.11346C1171.54 23.8908 1161.6 65.6433 1207.34 201.887C1253.08 338.131 1288.87 302.971 1288.87 353.513C1275.62 404.055 1228.02 474.814 1143.7 353.513C1130.44 288.321 1093.19 162.332 1050.23 179.912C996.54 201.887 956.766 228.257 1050.23 353.513C1143.7 478.769 1207.34 485.363 1207.34 606.223C1185.46 639.185 1115.43 657.349 1095.97 582.051C1069.69 529.895 1014.44 542.496 1014.44 630.395C1029.92 727.083 1091.99 874.315 1054.21 949.03C1020.4 995.177 1031.54 1055.39 932.902 1006.16C965.384 965.877 1013.64 879.15 946.823 854.538C920.308 858.2 858.526 893.653 823.526 1006.16C809.5 1030 804.474 1073.5 788.729 1137.59C766.068 1236.53 746.791 1353.7 749.5 1447.22C749.511 1447.44 749.517 1447.65 749.519 1447.86C750.748 1488.73 756.196 1540.99 767.422 1569.27C770.952 1578.16 784.007 1566.2 788.729 1573.39L909.039 1569.27Z" fill="#8EC744"/>
<path d="M671.121 1573.38H653.223C587.072 1544.51 544.398 1497.84 516.936 1443.73L402.65 1285.51C366.854 1127.3 420.548 1017.42 482.197 916.338C531.515 835.471 502.746 804.999 482.197 799.871C447.196 759.438 414.582 844.553 402.65 892.165C352.933 892.165 420.548 769.107 492.14 683.405C563.732 597.703 557.766 547.161 543.845 538.371C529.925 529.582 508.049 509.804 468.276 547.161C436.458 577.047 423.2 612.353 420.548 626.271C399.866 531.34 503.409 347.923 557.766 268.082C610.267 203.036 595.551 117.921 581.63 83.4935C537.084 36.0298 503.409 63.717 492.14 83.4935C480.208 184.577 492.14 231.455 468.276 243.907C444.413 284.341 352.271 127.443 309.183 52.7288C218.5 -0.0106907 185.222 51.2638 179.919 83.4935C168.782 150.297 321.114 213.145 362.876 268.082C369.24 570.455 319.126 616.748 293.273 602.098C175.544 487.83 112.967 517.862 96.3947 547.161C78.4967 608.691 162.021 626.271 221.681 683.405C269.409 729.113 289.296 841.623 293.273 892.165C237.59 1059.17 150.752 969.077 114.293 903.153C69.7465 741.418 25.4657 746.399 8.89361 769.107C-34.8571 960.287 156.055 1017.42 273.387 1155.86C367.252 1266.62 336.361 1288.44 309.183 1285.51C181.908 1185.31 114.293 1215.19 130.202 1272.33C329.069 1505.26 495.455 1546.56 603.507 1569.26L671.121 1573.38Z" fill="#8EC744"/>
<path d="M767.422 1569.27C756.196 1540.99 750.748 1488.73 749.519 1447.86L749.5 1447.22C748.141 1419.46 666.872 1286.99 740.298 1195.42C756.486 1175.23 778.575 1158.27 788.729 1137.59C800.269 1087.21 812.687 1041.56 823.526 1006.16C819.264 988.584 788.024 923.514 740.298 976.253C711.273 1070.74 653.223 1258.27 653.223 1254.75C653.223 1250.35 531.915 1298.7 603.507 1059.17C623.393 1032.07 653.223 975.67 758.201 916.338C836.181 815.254 762.6 683.405 836.181 683.405C924.345 636.526 980.549 555.951 977.376 509.804C974.204 463.657 945.103 406.523 854.078 547.161C822.26 536.906 786.862 493.103 899.818 399.93C943.569 377.956 1020.33 326.974 977.376 298.846C962.272 265.884 912.886 234.68 836.181 373.561C805.688 364.037 777.714 348.949 814.305 268.082C860.045 166.998 666.292 199.96 740.298 373.561C756.35 443.88 774.929 577.047 720.838 547.161C699.625 523.722 659.984 461.46 671.121 399.93C685.042 323.019 553.79 369.166 603.507 485.632C611.177 553.021 740.298 734.531 740.298 769.107C740.298 803.683 700.523 835.615 671.121 815.254C641.719 794.893 653.223 722.959 603.507 722.959C565.721 722.959 549.415 756.361 603.507 916.338C557.767 965.414 466.685 1089.94 468.276 1195.42C469.448 1273.12 477.528 1366.09 516.936 1443.73C544.398 1497.84 587.072 1544.51 653.223 1573.38H671.121L767.422 1569.27Z" fill="#5A8F47"/>
<path d="M823.526 1006.16C858.526 893.653 920.308 858.2 946.823 854.538C1013.64 879.15 965.384 965.877 932.902 1006.16C1031.54 1055.39 1020.4 995.177 1054.21 949.03C1091.99 874.315 1029.92 727.083 1014.44 630.395C1014.44 542.496 1069.69 529.895 1095.97 582.051C1115.43 657.349 1185.46 639.185 1207.34 606.223C1207.34 485.363 1143.7 478.769 1050.23 353.513C956.766 228.257 996.54 201.887 1050.23 179.912C1093.19 162.332 1130.44 288.321 1143.7 353.513C1228.02 474.814 1275.62 404.055 1288.87 353.513C1288.87 302.971 1253.08 338.131 1207.34 201.887C1161.6 65.6433 1171.54 23.8908 1229.21 4.11346C1275.35 -11.7084 1288.21 92.7438 1288.87 146.948C1322.28 342.082 1398.25 295.643 1432.06 248.032C1428.88 110.131 1469.18 123.184 1489.73 146.948C1522.21 202.617 1552.17 339.007 1412.17 439.212C1272.17 539.417 1299.48 592.305 1330.64 606.223C1529.5 574.579 1544.75 647.243 1527.51 687.53C1530.7 740.269 1397.59 735.874 1330.64 727.083C1247.11 685.331 1207.34 966.609 1171.54 1021.55C1135.75 1076.48 996.54 1096.26 909.039 1199.54C839.037 1282.17 867.276 1485.76 909.039 1569.27L788.729 1573.39C784.007 1566.2 770.952 1578.16 767.422 1569.27M823.526 1006.16C819.264 988.584 788.024 923.514 740.298 976.253C711.273 1070.74 653.223 1258.27 653.223 1254.75C653.223 1250.35 531.915 1298.7 603.507 1059.17C623.393 1032.07 653.223 975.67 758.201 916.338C836.181 815.254 762.6 683.405 836.181 683.405C924.345 636.526 980.549 555.951 977.376 509.804C974.204 463.657 945.103 406.523 854.078 547.161C822.26 536.906 786.862 493.103 899.818 399.93C943.569 377.956 1020.33 326.974 977.376 298.846C962.272 265.884 912.886 234.68 836.181 373.561C805.688 364.037 777.714 348.949 814.305 268.082C860.045 166.998 666.292 199.96 740.298 373.561C756.35 443.88 774.929 577.047 720.838 547.161C699.625 523.722 659.984 461.46 671.121 399.93C685.042 323.019 553.79 369.166 603.507 485.632C611.177 553.021 740.298 734.531 740.298 769.107C740.298 803.683 700.523 835.615 671.121 815.254C641.719 794.893 653.223 722.959 603.507 722.959C565.721 722.959 549.415 756.361 603.507 916.338C557.767 965.414 466.685 1089.94 468.276 1195.42C469.448 1273.12 477.528 1366.09 516.936 1443.73M823.526 1006.16C809.5 1030 804.474 1073.5 788.729 1137.59M823.526 1006.16C812.687 1041.56 800.269 1087.21 788.729 1137.59M767.422 1569.27C756.196 1540.99 750.748 1488.73 749.519 1447.86M767.422 1569.27L671.121 1573.38M749.519 1447.86C749.517 1447.65 749.511 1447.44 749.5 1447.22M749.519 1447.86C749.512 1447.64 749.506 1447.43 749.5 1447.22M749.519 1447.86L749.5 1447.22M671.121 1573.38H653.223C587.072 1544.51 544.398 1497.84 516.936 1443.73M671.121 1573.38L603.507 1569.26C495.455 1546.56 329.069 1505.26 130.202 1272.33C114.293 1215.19 181.908 1185.31 309.183 1285.51C336.361 1288.44 367.252 1266.62 273.387 1155.86C156.055 1017.42 -34.8571 960.287 8.89361 769.107C25.4657 746.399 69.7465 741.418 114.293 903.153C150.752 969.077 237.59 1059.17 293.273 892.165C289.296 841.623 269.409 729.113 221.681 683.405C162.021 626.271 78.4967 608.691 96.3947 547.161C112.967 517.862 175.544 487.83 293.273 602.098C319.126 616.748 369.24 570.455 362.876 268.082C321.114 213.145 168.782 150.297 179.919 83.4935C185.222 51.2638 218.5 -0.0106907 309.183 52.7288C352.271 127.443 444.413 284.341 468.276 243.907C492.14 231.455 480.208 184.577 492.14 83.4935C503.409 63.717 537.084 36.0298 581.63 83.4935C595.551 117.921 610.267 203.036 557.766 268.082C503.409 347.923 399.866 531.34 420.548 626.271C423.2 612.353 436.458 577.047 468.276 547.161C508.049 509.804 529.925 529.582 543.845 538.371C557.766 547.161 563.732 597.703 492.14 683.405C420.548 769.107 352.933 892.165 402.65 892.165C414.582 844.553 447.196 759.438 482.197 799.871C502.746 804.999 531.515 835.471 482.197 916.338C420.548 1017.42 366.854 1127.3 402.65 1285.51L516.936 1443.73M788.729 1137.59C766.068 1236.53 746.791 1353.7 749.5 1447.22M788.729 1137.59C778.575 1158.27 756.486 1175.23 740.298 1195.42C666.872 1286.99 748.141 1419.46 749.5 1447.22" stroke="black" stroke-width="5"/>
</svg>
