<svg width="564" height="998" viewBox="0 0 564 998" fill="none" xmlns="http://www.w3.org/2000/svg">
<path d="M252.283 991.209C286.415 994.449 354.68 998.984 354.68 991.209C354.68 981.49 402.306 794.893 477.318 769.625C552.33 744.357 567.808 701.595 559.474 656.889C551.139 612.184 502.322 656.889 477.318 703.539C449.536 735.286 416.594 734.638 507.084 478.067C530.898 451.503 573.047 389.434 551.139 353.669C529.231 317.905 512.641 372.459 507.084 404.206C491.209 452.799 464.221 499.06 483.271 295.358C492.797 265.554 513.038 200.893 517.8 180.679C523.754 155.41 505.894 118.48 491.606 149.579C477.318 180.679 474.937 258.427 463.03 258.427C451.123 258.427 440.407 110.704 454.695 60.1672C468.983 9.63051 420.166 -15.6378 414.213 17.4054C408.26 50.4486 409.45 122.367 420.166 248.709C430.882 375.051 382.065 303.133 386.828 248.709C391.59 194.285 364.205 176.791 354.68 205.947C345.154 235.103 401.116 380.882 393.972 392.544C404.688 444.377 424.929 558.927 420.166 602.466C414.213 656.889 386.828 618.015 386.828 602.466C386.828 586.916 388.018 499.449 371.349 514.998C354.68 530.548 378.493 664.665 378.493 684.102C378.493 703.539 371.349 837.656 320.151 837.656C311.816 837.008 302.767 799.947 333.248 656.889C337.613 636.161 324.918 563.623 320.154 536.397L320.151 536.379C315.388 509.167 371.825 433.75 354.68 404.206C333.248 367.276 289.193 272.033 304.672 221.497C320.151 170.96 352.298 93.2095 342.773 60.1672C333.248 27.1249 296.337 67.944 289.193 163.185C285.621 189.101 284.431 180.679 259.427 83.4928C234.422 -13.6932 193.941 11.5752 214.182 99.0425C234.422 186.51 300.624 382.048 289.193 433.362C274.905 497.505 318.96 682.157 289.193 703.539C277.287 708.074 250.378 660.389 237.995 433.362C218.944 371.81 180.367 250.651 178.462 258.427C176.081 268.146 197.512 163.185 187.987 163.185C187.987 134.029 152.739 108.645 153.458 167.073C153.458 167.073 154.878 176.111 154.648 177.424C157.643 204.454 161.559 247.525 158.221 258.427C149.489 272.758 134.753 237.047 99.8784 134.029C74.8738 60.1672 7.48311 19.35 99.8784 291.471C112.975 318.683 172.747 343.562 187.987 419.756C207.037 514.998 168.937 487.786 214.182 602.466C224.5 620.607 242.042 656.889 229.66 656.889C214.182 656.889 192.749 664.665 146.313 491.674C136.391 461.222 115.833 418.59 112.975 491.674C124.882 527.956 145.123 603.243 130.835 614.128C117.738 620.607 79.6364 612.184 32.01 526.661C14.9438 515.646 -12.7589 512.666 12.9594 588.86C29.6287 614.128 79.6364 668.552 146.313 684.102C176.874 702.243 237.995 755.242 237.995 822.106C237.995 905.686 233.233 989.574 252.283 991.209Z" fill="#FED762"/>
<path d="M320.151 536.379C315.388 509.167 371.825 433.75 354.68 404.206C333.248 367.276 289.193 272.033 304.672 221.497C320.151 170.96 352.298 93.2095 342.773 60.1672C333.248 27.1249 296.337 67.944 289.193 163.185C285.621 189.101 284.431 180.679 259.427 83.4928C234.422 -13.6932 193.941 11.5752 214.182 99.0425C234.422 186.51 300.624 382.048 289.193 433.362C274.905 497.505 318.96 682.157 289.193 703.539C277.287 708.074 250.378 660.389 237.995 433.362C218.944 371.81 180.367 250.651 178.462 258.427C176.081 268.146 197.512 163.185 187.987 163.185C187.987 134.029 152.739 108.645 153.458 167.073M320.151 536.379L320.154 536.397M320.151 536.379C320.152 536.385 320.153 536.391 320.154 536.397M153.458 167.073C153.458 167.073 154.878 176.111 154.648 177.424C157.643 204.454 161.559 247.525 158.221 258.427M153.458 167.073C156.393 191.654 162.031 245.986 158.221 258.427M158.221 258.427C149.489 272.758 134.753 237.047 99.8784 134.029C74.8738 60.1672 7.48311 19.35 99.8784 291.471C112.975 318.683 172.747 343.562 187.987 419.756C207.037 514.998 168.937 487.786 214.182 602.466C224.5 620.607 242.042 656.889 229.66 656.889C214.182 656.889 192.749 664.665 146.313 491.674C136.391 461.222 115.833 418.59 112.975 491.674C124.882 527.956 145.123 603.243 130.835 614.128C117.738 620.607 79.6364 612.184 32.01 526.661C14.9438 515.646 -12.7589 512.666 12.9594 588.86C29.6287 614.128 79.6364 668.552 146.313 684.102C176.874 702.243 237.995 755.242 237.995 822.106C237.995 905.686 233.233 989.574 252.283 991.209C286.415 994.449 354.68 998.984 354.68 991.209C354.68 981.49 402.306 794.893 477.318 769.625C552.33 744.357 567.808 701.595 559.474 656.889C551.139 612.184 502.322 656.889 477.318 703.539C449.536 735.286 416.594 734.638 507.084 478.067C530.898 451.503 573.047 389.434 551.139 353.669C529.231 317.905 512.641 372.459 507.084 404.206C491.209 452.799 464.221 499.06 483.271 295.358C492.797 265.554 513.038 200.893 517.8 180.679C523.754 155.41 505.894 118.48 491.606 149.579C477.318 180.679 474.937 258.427 463.03 258.427C451.123 258.427 440.407 110.704 454.695 60.1672C468.983 9.63051 420.166 -15.6378 414.213 17.4054C408.26 50.4486 409.45 122.367 420.166 248.709C430.882 375.051 382.065 303.133 386.828 248.709C391.59 194.285 364.205 176.791 354.68 205.947C345.154 235.103 401.116 380.882 393.972 392.544C404.688 444.377 424.929 558.927 420.166 602.466C414.213 656.889 386.828 618.015 386.828 602.466C386.828 586.916 388.018 499.449 371.349 514.998C354.68 530.548 378.493 664.665 378.493 684.102C378.493 703.539 371.349 837.656 320.151 837.656C311.816 837.008 302.767 799.947 333.248 656.889C337.613 636.161 324.918 563.623 320.154 536.397" stroke="black" stroke-width="5"/>
</svg>
