<svg width="948" height="652" viewBox="0 0 948 652" fill="none" xmlns="http://www.w3.org/2000/svg">
<path d="M555.32 434.58C564.32 432.08 575.07 423.256 589.07 428.756C603.07 434.256 650.441 465.256 663.07 475.756C722.27 376.956 679.07 226.929 650.07 164.266C600.274 120.122 538.5 76.2707 437.595 57.486C441.529 59.2964 445.54 61.3731 449.595 63.7127C512.935 100.262 586.94 200.971 548.595 353.08C507.795 514.926 457.595 566.327 437.595 571.797C483.062 561.542 519.696 552.439 542.455 542.256C541.347 497.966 550.133 436.021 555.32 434.58Z" fill="#F15B29"/>
<path d="M689.07 607.256C763.07 575.256 702.57 506.256 663.07 475.756C650.441 465.256 603.07 434.256 589.07 428.756C575.07 423.256 564.32 432.08 555.32 434.58C550.133 436.021 541.347 497.966 542.455 542.256C543.268 574.811 545.239 603.866 547.57 607.256C553.07 615.256 596.57 647.256 689.07 607.256Z" fill="#F15B29"/>
<path d="M437.595 57.486C538.5 76.2707 600.274 120.122 650.07 164.266C674.692 186.094 704.075 202.552 720 223.58C748.359 175.58 728.82 159.08 728.82 149.08C714 126.58 675.57 112.919 650.07 103.756C553.57 5.25556 547.57 16.2556 516.07 8.75557C490.87 2.75557 431.928 34.0281 405.095 52.5021C416.249 53.8579 427.079 55.5284 437.595 57.486Z" fill="#F15B29"/>
<path d="M944.07 393.756C941.57 329.756 933.57 267.756 879.07 246.756C869.657 243.129 859.95 243.01 850.32 245.368C742.72 384.399 821.026 468.439 873.63 493.08C905.267 483.867 946.022 443.746 944.07 393.756Z" fill="#F15B29"/>
<path fill-rule="evenodd" clip-rule="evenodd" d="M2.81976 317.58C6.81978 251.58 30.1531 216.247 35.3198 209.58C55.242 165.08 125.606 77.1033 264.595 54.2419C334.928 87.0213 470.395 192.68 449.595 353.08C428.795 513.48 340.928 576.303 299.595 587.664C271.968 587.51 242.956 589.267 215.57 583.756C173.524 575.294 138.459 559.072 109.82 538.213C142.62 550.719 159.82 507.119 164.32 483.756C115.82 509.08 62.1845 489.756 55.242 483.756C15.4311 429.481 0.021617 363.749 2.81976 317.58Z" fill="#F15B29"/>
<path d="M392.095 51.0802C321.5 44.2081 301.901 48.1056 264.595 54.2419C334.928 87.0213 470.395 192.68 449.595 353.08C428.795 513.48 340.928 576.303 299.595 587.664C348.496 587.937 396.271 581.116 437.595 571.797C457.595 566.327 507.795 514.926 548.595 353.08C586.94 200.971 512.935 100.262 449.595 63.7127C445.54 61.3731 441.529 59.2964 437.595 57.486C427.079 55.5284 416.249 53.8579 405.095 52.5021C400.809 51.9812 399 51.7524 392.095 51.0802Z" fill="white"/>
<path d="M738.57 406.756C773.77 452.356 823.32 487.58 850.32 493.08C856.613 495.816 864.763 495.662 873.63 493.08C821.026 468.439 742.72 384.399 850.32 245.368C815.341 253.935 781.36 295.187 766.07 319.756C761.855 315.741 750.427 263.756 720 223.58C704.075 202.552 674.692 186.094 650.07 164.266C679.07 226.929 722.27 376.956 663.07 475.756L738.57 406.756Z" fill="white"/>
<path d="M164.32 483.756C115.82 509.08 62.1845 489.756 55.242 483.756C69.8588 503.683 87.9691 522.297 109.82 538.213C142.62 550.719 159.82 507.119 164.32 483.756Z" fill="white"/>
<path d="M663.07 475.756L738.57 406.756C773.77 452.356 823.32 487.58 850.32 493.08C856.613 495.816 864.763 495.662 873.63 493.08M663.07 475.756C702.57 506.256 763.07 575.256 689.07 607.256C596.57 647.256 553.07 615.256 547.57 607.256C545.239 603.866 543.268 574.811 542.455 542.256M663.07 475.756C650.441 465.256 603.07 434.256 589.07 428.756C575.07 423.256 564.32 432.08 555.32 434.58C550.133 436.021 541.347 497.966 542.455 542.256M663.07 475.756C722.27 376.956 679.07 226.929 650.07 164.266M542.455 542.256C519.696 552.439 483.062 561.542 437.595 571.797M264.595 54.2419C125.606 77.1033 55.242 165.08 35.3198 209.58C30.1531 216.247 6.81978 251.58 2.81976 317.58C0.021617 363.749 15.4311 429.481 55.242 483.756M264.595 54.2419C301.901 48.1056 321.5 44.2081 392.095 51.0802C399 51.7524 400.809 51.9812 405.095 52.5021M264.595 54.2419C334.928 87.0213 470.395 192.68 449.595 353.08C428.795 513.48 340.928 576.303 299.595 587.664M299.595 587.664C271.968 587.51 242.956 589.267 215.57 583.756C173.524 575.294 138.459 559.072 109.82 538.213M299.595 587.664C348.496 587.937 396.271 581.116 437.595 571.797M437.595 57.486C538.5 76.2707 600.274 120.122 650.07 164.266M437.595 57.486C427.079 55.5284 416.249 53.8579 405.095 52.5021M437.595 57.486C441.529 59.2964 445.54 61.3731 449.595 63.7127M437.595 571.797C457.595 566.327 507.795 514.926 548.595 353.08C586.94 200.971 512.935 100.262 449.595 63.7127M650.07 164.266C674.692 186.094 704.075 202.552 720 223.58M405.095 52.5021C431.928 34.0281 490.87 2.75557 516.07 8.75557C547.57 16.2556 553.57 5.25556 650.07 103.756C675.57 112.919 714 126.58 728.82 149.08C728.82 159.08 748.359 175.58 720 223.58M405.095 52.5021L449.595 63.7127M720 223.58C750.427 263.756 761.855 315.741 766.07 319.756C781.36 295.187 815.341 253.935 850.32 245.368M55.242 483.756C62.1845 489.756 115.82 509.08 164.32 483.756C159.82 507.119 142.62 550.719 109.82 538.213M55.242 483.756C69.8588 503.683 87.9691 522.297 109.82 538.213M873.63 493.08C905.267 483.867 946.022 443.746 944.07 393.756C941.57 329.756 933.57 267.756 879.07 246.756C869.657 243.129 859.95 243.01 850.32 245.368M873.63 493.08C821.026 468.439 742.72 384.399 850.32 245.368M848.82 244.08C804.986 295.08 747.62 416.58 868.82 494.58" stroke="black" stroke-width="5"/>
<path d="M212.5 141.503C306.218 141.503 382 214.136 382 303.503C382 392.869 306.218 465.503 212.5 465.503C118.782 465.503 43 392.869 43 303.503C43 214.136 118.782 141.503 212.5 141.503Z" fill="white" stroke="black" stroke-width="5"/>
<path d="M603.5 57.2442C601.58 55.8034 597.011 51.919 596 51.7442C585.937 59.7616 565.52 77.3274 556 93.2447C558.379 94.543 563.255 97.9584 564.177 98.65C570.672 88.6851 586.428 68.6624 603.5 57.2442Z" fill="#C63200"/>
<path d="M648.5 102.244L646 98.65L642 96.2448C630.921 103.865 609.827 122.748 608.874 125.245L615.513 129.774C623.607 121.859 643.951 101.458 648.5 102.244Z" fill="#C63200"/>
<path d="M627.5 82.2442C626.745 80.3395 623 77.1264 623 77.7442C623 78.3854 603.706 89.3673 584 109.245L592.054 113.592C601.957 103.994 618.013 85.9261 627.5 82.2442Z" fill="#C63200"/>
<path d="M538.5 84.9778L530.5 81.0911C540.23 67.4721 560.887 31.6212 568.5 29.7442C571.796 30.7575 576.099 36.1363 577.5 35.2442C571.812 38.0306 555.309 57.0152 538.5 84.9778Z" fill="#C63200"/>
<path d="M465 22.745C462.039 23.5635 454.779 26.8692 453.5 28.2448C452.595 30.9711 450.281 39.8996 446.5 55.7448C448.086 55.3537 452.555 56.1334 456.094 56.7452C457.943 47.3075 462.442 25.496 465 22.745Z" fill="#C63200"/>
<path d="M515 10.177C511.556 10.025 501.19 10.386 500 11.2448C495.029 19.9209 479.798 52.6719 476.495 62.7452L484.994 65.2452C488.318 56.0623 505.363 20.7518 515 10.177Z" fill="#C63200"/>
<path d="M550 17.7442C547.931 17.1647 541.622 15.252 538.5 15.2443C533.927 19.1106 514.803 46.0285 503.08 71.677L509.893 73.7441C515.521 62.5204 538.282 25.298 550 17.7442Z" fill="#C63200"/>
<path d="M677 115.244L674 113.592L666.049 111.244C654.97 118.864 631.001 139.748 630.049 142.245L636.688 146.774C644.781 138.859 672.451 114.458 677 115.244Z" fill="#C63200"/>
<path d="M731 160.004L729 149.504L727.5 148.004C718 155.234 685.452 187.507 684.5 190.004L692.5 195.004C700.593 187.089 727 162.504 731 160.004Z" fill="#C63200"/>
<path d="M700.5 126.244C689.421 133.864 657.327 161.277 656.375 163.774L663.014 168.303C671.107 160.388 703.951 130.958 708.5 131.744L705.5 128.744L700.5 126.244Z" fill="#C63200"/>
<path d="M603.5 57.2442C601.58 55.8034 597.011 51.919 596 51.7442C585.937 59.7616 565.52 77.3274 556 93.2447C558.379 94.543 563.255 97.9584 564.177 98.65C570.672 88.6851 586.428 68.6624 603.5 57.2442Z" stroke="black" stroke-width="5"/>
<path d="M648.5 102.244L646 98.65L642 96.2448C630.921 103.865 609.827 122.748 608.874 125.245L615.513 129.774C623.607 121.859 643.951 101.458 648.5 102.244Z" stroke="black" stroke-width="5"/>
<path d="M627.5 82.2442C626.745 80.3395 623 77.1264 623 77.7442C623 78.3854 603.706 89.3673 584 109.245L592.054 113.592C601.957 103.994 618.013 85.9261 627.5 82.2442Z" stroke="black" stroke-width="5"/>
<path d="M538.5 84.9778L530.5 81.0911C540.23 67.4721 560.887 31.6212 568.5 29.7442C571.796 30.7575 576.099 36.1363 577.5 35.2442C571.812 38.0306 555.309 57.0152 538.5 84.9778Z" stroke="black" stroke-width="5"/>
<path d="M465 22.745C462.039 23.5635 454.779 26.8692 453.5 28.2448C452.595 30.9711 450.281 39.8996 446.5 55.7448C448.086 55.3537 452.555 56.1334 456.094 56.7452C457.943 47.3075 462.442 25.496 465 22.745Z" stroke="black" stroke-width="5"/>
<path d="M515 10.177C511.556 10.025 501.19 10.386 500 11.2448C495.029 19.9209 479.798 52.6719 476.495 62.7452L484.994 65.2452C488.318 56.0623 505.363 20.7518 515 10.177Z" stroke="black" stroke-width="5"/>
<path d="M550 17.7442C547.931 17.1647 541.622 15.252 538.5 15.2443C533.927 19.1106 514.803 46.0285 503.08 71.677L509.893 73.7441C515.521 62.5204 538.282 25.298 550 17.7442Z" stroke="black" stroke-width="5"/>
<path d="M677 115.244L674 113.592L666.049 111.244C654.97 118.864 631.001 139.748 630.049 142.245L636.688 146.774C644.781 138.859 672.451 114.458 677 115.244Z" stroke="black" stroke-width="5"/>
<path d="M731 160.004L729 149.504L727.5 148.004C718 155.234 685.452 187.507 684.5 190.004L692.5 195.004C700.593 187.089 727 162.504 731 160.004Z" stroke="black" stroke-width="5"/>
<path d="M700.5 126.244C689.421 133.864 657.327 161.277 656.375 163.774L663.014 168.303C671.107 160.388 703.951 130.958 708.5 131.744L705.5 128.744L700.5 126.244Z" stroke="black" stroke-width="5"/>
<path d="M582.092 428.003C591.181 445.494 677.675 523.956 724 558.503L721.5 544.503C721.5 544.503 660.588 495.835 644 478.003C627.373 460.127 591 428.003 591 428.003L582.092 428.003Z" fill="#C63200"/>
<path d="M569 431.275C578.774 465.912 649.772 596.409 678 612.003L694 604.503C694 604.503 635.427 544.956 617 507.003C604.408 481.068 576.5 428.003 576.5 428.003L569 431.275Z" fill="#C63200"/>
<path d="M556.5 436.503C554.229 473.791 572.546 596.846 602.5 624.502L617 624.503C617 624.503 588.819 576.701 582.092 544.503C574.484 508.089 564.5 433.875 564.5 433.875L556.5 436.503Z" fill="#C63200"/>
<path d="M582.092 428.003C591.181 445.494 677.675 523.956 724 558.503L721.5 544.503C721.5 544.503 660.588 495.835 644 478.003C627.373 460.127 591 428.003 591 428.003L582.092 428.003Z" stroke="black" stroke-width="5"/>
<path d="M569 431.275C578.774 465.912 649.772 596.409 678 612.003L694 604.503C694 604.503 635.427 544.956 617 507.003C604.408 481.068 576.5 428.003 576.5 428.003L569 431.275Z" stroke="black" stroke-width="5"/>
<path d="M556.5 436.503C554.229 473.791 572.546 596.846 602.5 624.502L617 624.503C617 624.503 588.819 576.701 582.092 544.503C574.484 508.089 564.5 433.875 564.5 433.875L556.5 436.503Z" stroke="black" stroke-width="5"/>
<path d="M803 336.503C816.649 336.604 883.581 305.358 918.5 280.503L912 270.503C912 270.503 861 295.503 843.5 304.003C828 311.531 807 321.503 807 321.503L803 336.503Z" fill="#C63200"/>
<path d="M797.943 364.003C822.597 369.185 923 373.503 940 362.222L938.5 342.503C938.5 342.503 895 349.503 864.5 351.003C844.514 351.986 799.5 353.503 799.5 353.503L797.943 364.003Z" fill="#C63200"/>
<path d="M798.641 390.458C821.663 409.791 898.5 452.003 927.5 448.503L936 431.503C936 431.503 893.516 422.479 871.198 413.458C845.959 403.256 797.431 381.003 797.431 381.003L798.641 390.458Z" fill="#C63200"/>
<path d="M803 336.503C816.649 336.604 883.581 305.358 918.5 280.503L912 270.503C912 270.503 861 295.503 843.5 304.003C828 311.531 807 321.503 807 321.503L803 336.503Z" stroke="black" stroke-width="5"/>
<path d="M797.943 364.003C822.597 369.185 923 373.503 940 362.222L938.5 342.503C938.5 342.503 895 349.503 864.5 351.003C844.514 351.986 799.5 353.503 799.5 353.503L797.943 364.003Z" stroke="black" stroke-width="5"/>
<path d="M798.641 390.458C821.663 409.791 898.5 452.003 927.5 448.503L936 431.503C936 431.503 893.516 422.479 871.198 413.458C845.959 403.256 797.431 381.003 797.431 381.003L798.641 390.458Z" stroke="black" stroke-width="5"/>
<ellipse cx="121.5" cy="363.998" rx="42" ry="40" fill="#0D0D0D"/>
<circle cx="102.5" cy="373.998" r="10" fill="white"/>
</svg>
