<svg width="708" height="573" viewBox="0 0 708 573" fill="none" xmlns="http://www.w3.org/2000/svg">
<path fill-rule="evenodd" clip-rule="evenodd" d="M506.18 145.18C624.98 172.78 688.18 279.68 704.93 329.68C692.68 334.93 655.13 342.28 602.93 329.68C614.43 342.93 647.93 372.43 683.18 372.43C590.78 466.03 465.43 488.18 412.43 493.93C352.43 500.44 220.43 455.23 187.43 429.43L146.18 400.93C98.7802 349.883 126.43 291.161 146.18 268.18C174.68 226.18 210.68 208.18 253.43 186.43C291.68 160.18 423.68 122.68 506.18 145.18ZM484.43 369.43C453.23 332.83 445.93 304.68 446.18 295.18C433.43 283.93 374.93 271.18 357.68 271.18C338.93 280 347.43 283 347.43 295.18C288.93 312.43 296.93 316.18 291.68 329.68C289.28 387.88 364.18 392.93 400.43 388.18C393.83 477.58 453.68 412.93 484.43 369.43Z" fill="#F4B8AE"/>
<path d="M383.18 4.93025C443.78 19.3303 490.43 104.43 506.18 145.18C423.68 122.68 291.68 160.18 253.43 186.43C206.63 141.43 246.93 129.68 272.93 129.43C252.68 43.9304 335.93 82.1803 329.18 78.4303C322.43 74.6803 307.43 -13.0697 383.18 4.93025Z" fill="#E87185"/>
<path d="M215.93 466.93C185.93 463.93 184.43 440.68 187.43 429.43C220.43 455.23 352.43 500.44 412.43 493.93C285.23 609.13 265.18 557.68 272.93 512.68C200.93 537.88 204.93 492.68 215.93 466.93Z" fill="#E87185"/>
<path d="M27.6802 205.18C78.0802 183.58 127.68 238.18 146.18 268.18C126.43 291.161 98.7802 349.883 146.18 400.93C84.6802 472.181 38.9302 440.68 27.6802 440.68C-19.1198 386.68 52.6802 344.18 94.4302 329.68C80.6302 329.68 44.1802 306.68 27.6802 295.18C-17.9198 248.38 8.68018 215.68 27.6802 205.18Z" fill="#E87185"/>
<path d="M446.18 295.18C445.93 304.68 453.23 332.83 484.43 369.43C453.68 412.93 393.83 477.58 400.43 388.18C364.18 392.93 289.28 387.88 291.68 329.68C296.93 316.18 288.93 312.43 347.43 295.18C347.43 283 338.93 280 357.68 271.18C374.93 271.18 433.43 283.93 446.18 295.18Z" fill="#E87185"/>
<path d="M704.93 329.68C694.73 368.68 689.93 369.43 683.18 372.43C647.93 372.43 614.43 342.93 602.93 329.68C655.13 342.28 692.68 334.93 704.93 329.68Z" fill="white"/>
<path d="M704.93 329.68C688.18 279.68 624.98 172.78 506.18 145.18M704.93 329.68C694.73 368.68 689.93 369.43 683.18 372.43M704.93 329.68C692.68 334.93 655.13 342.28 602.93 329.68C614.43 342.93 647.93 372.43 683.18 372.43M506.18 145.18C490.43 104.43 443.78 19.3303 383.18 4.93025C307.43 -13.0697 322.43 74.6803 329.18 78.4303C335.93 82.1803 252.68 43.9304 272.93 129.43C246.93 129.68 206.63 141.43 253.43 186.43M506.18 145.18C423.68 122.68 291.68 160.18 253.43 186.43M253.43 186.43C210.68 208.18 174.68 226.18 146.18 268.18M146.18 268.18C127.68 238.18 78.0802 183.58 27.6802 205.18C8.68018 215.68 -17.9198 248.38 27.6802 295.18C44.1802 306.68 80.6302 329.68 94.4302 329.68C52.6802 344.18 -19.1198 386.68 27.6802 440.68C38.9302 440.68 84.6802 472.181 146.18 400.93M146.18 268.18C126.43 291.161 98.7802 349.883 146.18 400.93M146.18 400.93L187.43 429.43M187.43 429.43C184.43 440.68 185.93 463.93 215.93 466.93C204.93 492.68 200.93 537.88 272.93 512.68C265.18 557.68 285.23 609.13 412.43 493.93M187.43 429.43C220.43 455.23 352.43 500.44 412.43 493.93M412.43 493.93C465.43 488.18 590.78 466.03 683.18 372.43M446.18 295.18C445.93 304.68 453.23 332.83 484.43 369.43C453.68 412.93 393.83 477.58 400.43 388.18C364.18 392.93 289.28 387.88 291.68 329.68C296.93 316.18 288.93 312.43 347.43 295.18C347.43 283 338.93 280 357.68 271.18C374.93 271.18 433.43 283.93 446.18 295.18Z" stroke="black" stroke-width="5"/>
<ellipse cx="61.5" cy="59.25" rx="61.5" ry="59.25" transform="matrix(-1 0 0 1 608.93 197.681)" fill="white" stroke="black" stroke-width="5"/>
<circle cx="35.25" cy="35.25" r="35.25" transform="matrix(-1 0 0 1 608.93 226.181)" fill="black"/>
<circle cx="11.25" cy="11.25" r="11.25" transform="matrix(-1 0 0 1 602.93 250.181)" fill="#FFFCFC"/>
<path d="M277.43 174.5C271.93 166.333 259.43 147.2 253.43 136L242.93 138C249.597 151 262.93 175.7 266.93 178.5C270.93 178.5 275.597 175.833 277.43 174.5Z" fill="#F7C143"/>
<path d="M308.93 163C303.43 150 288.33 120.2 271.93 105V125C273.764 124.833 281.33 132.9 296.93 166.5C299.73 166.5 306.097 164.166 308.93 163Z" fill="#F7C143"/>
<path d="M341.43 151.5C333.264 132 313.43 91.8995 293.43 77.4995L281.93 80.4995C292.764 90.1662 316.93 118.4 326.93 154L341.43 151.5Z" fill="#F7C143"/>
<path d="M373.93 143C367.764 126.166 346.43 87.9995 326.93 71.9995L319.93 77.4995C327.097 83.9995 345.93 106.7 363.93 145.5L373.93 143Z" fill="#F7C143"/>
<path d="M411.93 138C403.93 110.5 377.63 50.5995 334.43 18.9995L326.93 30.9995C341.264 42.1662 379.43 75.4995 397.43 140L411.93 138Z" fill="#F7C143"/>
<path d="M459.43 136C443.93 94.4995 390.93 10.9995 373.93 6.49951H360.93C378.93 28.9995 421.43 82.4995 444.43 136H459.43Z" fill="#F7C143"/>
<path d="M277.43 174.5C271.93 166.333 259.43 147.2 253.43 136L242.93 138C249.597 151 262.93 175.7 266.93 178.5C270.93 178.5 275.597 175.833 277.43 174.5Z" stroke="black" stroke-width="5"/>
<path d="M308.93 163C303.43 150 288.33 120.2 271.93 105V125C273.764 124.833 281.33 132.9 296.93 166.5C299.73 166.5 306.097 164.166 308.93 163Z" stroke="black" stroke-width="5"/>
<path d="M341.43 151.5C333.264 132 313.43 91.8995 293.43 77.4995L281.93 80.4995C292.764 90.1662 316.93 118.4 326.93 154L341.43 151.5Z" stroke="black" stroke-width="5"/>
<path d="M373.93 143C367.764 126.166 346.43 87.9995 326.93 71.9995L319.93 77.4995C327.097 83.9995 345.93 106.7 363.93 145.5L373.93 143Z" stroke="black" stroke-width="5"/>
<path d="M411.93 138C403.93 110.5 377.63 50.5995 334.43 18.9995L326.93 30.9995C341.264 42.1662 379.43 75.4995 397.43 140L411.93 138Z" stroke="black" stroke-width="5"/>
<path d="M459.43 136C443.93 94.4995 390.93 10.9995 373.93 6.49951H360.93C378.93 28.9995 421.43 82.4995 444.43 136H459.43Z" stroke="black" stroke-width="5"/>
<path d="M219.437 446.392C215.39 450.225 207.932 457.499 202.432 462.999L193.932 457.499C199.031 451.237 206.684 443.151 209.432 441.999C212.005 442.307 218.341 445.556 219.437 446.392Z" fill="#F7C143"/>
<path d="M246.932 460.999C242.583 467.352 224.43 489.338 212.932 495.999L215.932 478.505C217.101 478.733 223.802 472.811 235.932 456.499C237.733 456.715 247.907 459.575 246.932 460.999Z" fill="#F7C143"/>
<path d="M276.536 470.624C270.067 480.159 241.696 512.857 227.932 518.824L215.932 513.499C223.504 509.295 251.932 485.435 263.775 468.206L276.536 470.624Z" fill="#F7C143"/>
<path d="M304.932 479.499C299.916 487.798 282.435 506.661 268.893 513.499L253.932 513.499C258.947 510.663 280.434 494.837 294.432 475.999L304.932 479.499Z" fill="#F7C143"/>
<path d="M338.932 485.999C332.071 499.717 304.932 527.499 274.432 544.499L271.932 535.499C276.536 527.999 309.932 508.999 326.58 483.32L338.932 485.999Z" fill="#F7C143"/>
<path d="M379.432 495.999C366.874 516.436 307.647 562.962 296.43 564L287.93 560.5C300.93 549 349.301 519.113 367.432 492.999L379.432 495.999Z" fill="#F7C143"/>
<path d="M219.437 446.392C215.39 450.225 207.932 457.499 202.432 462.999L193.932 457.499C199.031 451.237 206.684 443.151 209.432 441.999C212.005 442.307 218.341 445.556 219.437 446.392Z" stroke="black" stroke-width="5"/>
<path d="M246.932 460.999C242.583 467.352 224.43 489.338 212.932 495.999L215.932 478.505C217.101 478.733 223.802 472.811 235.932 456.499C237.733 456.715 247.907 459.575 246.932 460.999Z" stroke="black" stroke-width="5"/>
<path d="M276.536 470.624C270.067 480.159 241.696 512.857 227.932 518.824L215.932 513.499C223.504 509.295 251.932 485.435 263.775 468.206L276.536 470.624Z" stroke="black" stroke-width="5"/>
<path d="M304.932 479.499C299.916 487.798 282.435 506.661 268.893 513.499L253.932 513.499C258.947 510.663 280.434 494.837 294.432 475.999L304.932 479.499Z" stroke="black" stroke-width="5"/>
<path d="M338.932 485.999C332.071 499.717 304.932 527.499 274.432 544.499L271.932 535.499C276.536 527.999 309.932 508.999 326.58 483.32L338.932 485.999Z" stroke="black" stroke-width="5"/>
<path d="M379.432 495.999C366.874 516.436 307.647 562.962 296.43 564L287.93 560.5C300.93 549 349.301 519.113 367.432 492.999L379.432 495.999Z" stroke="black" stroke-width="5"/>
<path d="M479.43 364.5L471.43 354C452.097 365.5 411.43 387 399.93 387V401.5C414.597 396.666 451.03 386.1 479.43 364.5Z" fill="#F7C143"/>
<path d="M447.43 309.5L444.43 297C413.43 295.5 350.63 288.3 347.43 283.5V297C347.43 299.8 412.93 313.5 447.43 309.5Z" fill="#F7C143"/>
<path d="M457.39 333.086C405.724 334.919 300.99 335.786 295.39 324.586L294.43 344.086C340.597 348.252 439.23 354.086 464.43 344.086L457.39 333.086Z" fill="#F7C143"/>
<path d="M347.43 283.5C350.63 288.3 413.43 295.5 444.43 297L447.43 309.5C412.93 313.5 347.43 299.8 347.43 297M347.43 283.5C347.43 287 347.43 294.2 347.43 297M347.43 283.5V297M457.39 333.086C405.724 334.919 300.99 335.786 295.39 324.586L294.43 344.086C340.597 348.252 439.23 354.086 464.43 344.086L457.39 333.086ZM479.43 364.5L471.43 354C452.097 365.5 411.43 387 399.93 387V401.5C414.597 396.666 451.03 386.1 479.43 364.5Z" stroke="black" stroke-width="5"/>
<path d="M276.93 227.038C276.93 243.097 289.716 248.5 303.972 248.5C318.228 248.5 335.93 243.097 335.93 227.038C335.93 210.979 318.228 203.5 303.972 203.5C289.716 203.5 276.93 210.979 276.93 227.038Z" fill="#E87185"/>
<path d="M234.93 273.5C234.93 285.097 245.332 289 256.93 289C268.528 289 282.93 285.097 282.93 273.5C282.93 261.902 268.528 256.5 256.93 256.5C245.332 256.5 234.93 261.902 234.93 273.5Z" fill="#E87185"/>
<path d="M217.93 239.053C217.93 247.618 225.515 250.5 233.972 250.5C242.429 250.5 252.93 247.618 252.93 239.053C252.93 230.489 242.429 226.5 233.972 226.5C225.515 226.5 217.93 230.489 217.93 239.053Z" fill="#E87185"/>
<path d="M135.93 387L128.93 376.5C101.93 394.833 48.4302 424.5 22.4302 430.5L33.4302 442.5C47.7635 440.166 88.3302 425.8 135.93 387Z" fill="#F7C143"/>
<path d="M120.43 343.5L122.93 358.5C98.0968 375.833 41.5302 410.2 13.9302 409V394.5C32.0968 389.166 78.8302 371.5 120.43 343.5Z" fill="#F7C143"/>
<path d="M122.93 311L126.93 300C87.0968 285 6.83018 251.5 4.43018 237.5V256C36.5968 274.333 105.33 311 122.93 311Z" fill="#F7C143"/>
<path d="M138.43 276.5L132.43 287C92.5968 267.333 13.1302 226 13.9302 218L23.4302 208C54.2635 227.333 120.43 268.1 138.43 276.5Z" fill="#F7C143"/>
<path d="M135.93 387L128.93 376.5C101.93 394.833 48.4302 424.5 22.4302 430.5L33.4302 442.5C47.7635 440.166 88.3302 425.8 135.93 387Z" stroke="black" stroke-width="5"/>
<path d="M120.43 343.5L122.93 358.5C98.0968 375.833 41.5302 410.2 13.9302 409V394.5C32.0968 389.166 78.8302 371.5 120.43 343.5Z" stroke="black" stroke-width="5"/>
<path d="M122.93 311L126.93 300C87.0968 285 6.83018 251.5 4.43018 237.5V256C36.5968 274.333 105.33 311 122.93 311Z" stroke="black" stroke-width="5"/>
<path d="M138.43 276.5L132.43 287C92.5968 267.333 13.1302 226 13.9302 218L23.4302 208C54.2635 227.333 120.43 268.1 138.43 276.5Z" stroke="black" stroke-width="5"/>
</svg>
