<svg width="591" height="970" viewBox="0 0 591 970" fill="none" xmlns="http://www.w3.org/2000/svg">
<path d="M271.837 967.181C307.617 970.096 335.493 952.327 335.493 945.331C335.493 936.586 421.617 715.527 500.252 692.79C578.887 670.052 595.113 631.573 586.376 591.345C577.638 551.118 526.463 591.345 500.252 633.322C471.128 661.89 436.595 661.307 531.456 430.434C556.419 406.53 600.605 350.678 577.638 318.496C554.672 286.313 537.281 335.403 531.456 363.971C514.814 407.697 486.522 449.324 506.493 266.025C516.478 239.206 537.697 181.022 542.69 162.832C548.93 140.094 530.208 106.862 515.23 134.847C500.252 162.832 497.755 232.792 485.274 232.792C472.792 232.792 461.559 99.8655 476.537 54.3905C491.515 8.91554 440.34 -13.8219 434.099 15.9117C427.858 45.6453 429.106 110.361 440.34 224.048C451.573 337.735 400.398 273.021 405.391 224.048C410.384 175.075 381.676 159.334 371.69 185.569C361.705 211.805 420.369 342.983 412.88 353.477C424.113 400.118 445.332 503.195 440.34 542.373C434.099 591.345 405.391 556.365 405.391 542.373C405.391 528.38 406.639 449.674 389.165 463.666C371.69 477.658 396.654 598.342 396.654 615.832C396.654 633.322 389.165 754.006 335.493 754.006C326.756 753.423 317.27 720.075 349.223 591.345C353.799 572.693 340.491 507.421 335.497 482.922L335.493 482.905C330.501 458.419 389.664 390.556 371.69 363.971C349.223 330.739 303.041 245.036 319.267 199.561C335.493 154.086 369.194 84.1233 359.208 54.3905C349.223 24.6577 310.53 61.3884 303.041 147.09C299.296 170.411 298.049 162.832 271.837 75.3798C245.624 -12.0721 203.188 10.6654 224.406 89.3721C245.624 168.079 315.023 344.032 303.041 390.207C288.063 447.925 334.245 614.082 303.041 633.322C290.559 637.404 262.35 594.494 249.369 390.207C229.399 334.82 188.958 225.795 186.961 232.792C184.465 241.538 206.932 147.09 196.946 147.09C196.946 120.855 159.996 98.0127 160.749 150.588C160.749 150.588 162.238 158.721 161.997 159.903C165.137 184.225 169.242 222.982 165.742 232.792C156.589 245.689 141.141 213.554 104.582 120.855C78.3695 54.3905 7.7238 17.6616 104.582 262.527C118.311 287.013 180.97 309.401 196.946 377.963C216.916 463.666 176.976 439.18 224.406 542.373C235.223 558.697 253.612 591.345 240.632 591.345C224.406 591.345 201.938 598.342 153.26 442.678C142.858 415.276 121.307 376.914 118.311 442.678C130.793 475.326 152.012 543.072 137.033 552.867C123.304 558.697 83.3621 551.118 33.4353 474.16C15.5449 464.249 -13.4959 461.567 13.4646 530.129C30.939 552.867 83.3621 601.84 153.26 615.832C185.296 632.157 249.369 679.847 249.369 740.014C249.369 815.223 251.866 965.71 271.837 967.181Z" fill="#AC8FA5"/>
<path d="M160.749 150.588C159.996 98.0127 196.946 120.855 196.946 147.09C206.932 147.09 184.465 241.538 186.961 232.792C188.958 225.795 229.399 334.82 249.369 390.207C262.35 594.494 290.559 637.404 303.041 633.322C334.245 614.082 288.063 447.925 303.041 390.207C315.023 344.032 245.624 168.079 224.406 89.3721C203.188 10.6654 245.624 -12.0721 271.837 75.3798C298.049 162.832 299.296 170.411 303.041 147.09C310.53 61.3884 349.223 24.6577 359.208 54.3905C369.194 84.1233 335.493 154.086 319.267 199.561C303.041 245.036 349.223 330.739 371.69 363.971C389.664 390.556 330.501 458.419 335.493 482.905L335.497 482.922C340.491 507.421 353.799 572.693 349.223 591.345C317.27 720.075 326.756 753.423 335.493 754.006C389.165 754.006 396.654 633.322 396.654 615.832C396.654 598.342 371.69 477.658 389.165 463.666C406.639 449.674 405.391 528.38 405.391 542.373C405.391 556.365 434.099 591.345 440.34 542.373C445.332 503.195 424.113 400.118 412.88 353.477C420.369 342.983 361.705 211.805 371.69 185.569C381.676 159.334 410.384 175.075 405.391 224.048C400.398 273.021 451.573 337.735 440.34 224.048C429.106 110.361 427.858 45.6453 434.099 15.9117C440.34 -13.8219 491.515 8.91554 476.537 54.3905C461.559 99.8655 472.792 232.792 485.274 232.792C497.755 232.792 500.252 162.832 515.23 134.847C530.208 106.862 548.93 140.094 542.69 162.832C537.697 181.022 516.478 239.206 506.493 266.025C486.522 449.324 514.814 407.697 531.456 363.971C537.281 335.403 554.672 286.313 577.638 318.496C600.605 350.678 556.419 406.53 531.456 430.434C436.595 661.307 471.128 661.89 500.252 633.322C526.463 591.345 577.638 551.118 586.376 591.345C595.113 631.573 578.887 670.052 500.252 692.79C421.617 715.527 335.493 936.586 335.493 945.331C335.493 952.327 307.617 970.096 271.837 967.181C251.866 965.71 249.369 815.223 249.369 740.014C249.369 679.847 185.296 632.157 153.26 615.832C83.3621 601.84 30.939 552.867 13.4646 530.129C-13.4959 461.567 15.5449 464.249 33.4353 474.16C83.3621 551.118 123.304 558.697 137.033 552.867C152.012 543.072 130.793 475.326 118.311 442.678C121.307 376.914 142.858 415.276 153.26 442.678C201.938 598.342 224.406 591.345 240.632 591.345C253.612 591.345 235.223 558.697 224.406 542.373C176.976 439.18 216.916 463.666 196.946 377.963C180.97 309.401 118.311 287.013 104.582 262.527C7.7238 17.6616 78.3695 54.3905 104.582 120.855C141.141 213.554 156.589 245.689 165.742 232.792M160.749 150.588C160.749 150.588 162.238 158.721 161.997 159.903C165.137 184.225 169.242 222.982 165.742 232.792M160.749 150.588C163.826 172.707 169.736 221.598 165.742 232.792" stroke="black" stroke-width="5"/>
</svg>
