<svg width="744" height="456" viewBox="0 0 744 456" fill="none" xmlns="http://www.w3.org/2000/svg">
<path d="M314.494 100.941C322.494 96.6078 343.494 86.9412 363.494 82.9412C354.494 91.9412 336.294 132.141 335.494 220.941C319.828 225.274 298.494 250.941 338.494 318.941C340.828 339.274 348.494 384.941 360.494 404.941C353.161 403.941 333.694 400.141 314.494 392.941C306.161 376.608 289.894 322.341 291.494 235.941C291.161 204.274 295.294 132.941 314.494 100.941Z" fill="#7B80D2" stroke="black" stroke-width="5"/>
<path d="M340.493 319.941C350.493 327.941 379.693 341.541 416.493 331.941C419.16 355.941 426.893 405.741 436.493 412.941C415.16 411.941 370.093 408.941 360.493 404.941C352.826 385.274 338.093 340.741 340.493 319.941Z" fill="#B3ACE9" stroke="black" stroke-width="5"/>
<path d="M387.493 227.939C328.293 203.939 316.16 233.939 317.493 251.939C315.093 271.139 331.16 303.939 339.494 317.939C385.094 345.939 424.827 331.606 438.494 320.939C455.294 313.739 456.827 282.606 455.494 267.939C445.894 251.139 405.827 234.273 387.493 227.939Z" fill="#5A63C2" stroke="black" stroke-width="5"/>
<path d="M200.494 185.941C209.827 176.274 230.494 155.341 238.494 148.941C235.494 168.941 229.894 217.941 231.494 253.941C231.827 278.608 235.694 335.341 248.494 356.941C237.161 347.941 211.494 327.141 199.494 315.941C195.827 291.941 190.894 230.741 200.494 185.941Z" fill="#7B80D2" stroke="black" stroke-width="5"/>
<path d="M238.491 148.941C254.491 135.274 292.491 106.141 316.491 98.9412C307.491 107.941 289.691 148.941 290.491 240.941C289.825 277.608 294.091 360.141 316.491 392.941C307.491 390.608 281.691 380.341 250.491 357.941C240.158 348.274 223.291 292.141 238.491 148.941Z" fill="#B3ACE9" stroke="black" stroke-width="5"/>
<path d="M453.494 276.942C425.827 264.609 359.894 241.142 317.494 245.942C349.827 254.609 422.294 272.942 453.494 276.942Z" fill="#4552B6"/>
<path d="M453.494 289.942C413.494 286.942 332.494 283.542 328.494 293.942C355.827 296.275 419.094 298.742 453.494 289.942Z" fill="#4552B6"/>
<path d="M453.494 276.942C425.827 264.609 359.894 241.142 317.494 245.942C349.827 254.609 422.294 272.942 453.494 276.942Z" stroke="black" stroke-width="5"/>
<path d="M453.494 289.942C413.494 286.942 332.494 283.542 328.494 293.942C355.827 296.275 419.094 298.742 453.494 289.942Z" stroke="black" stroke-width="5"/>
<path d="M156.617 217.941C141.95 225.941 119.817 251.941 156.617 279.941C167.95 291.274 194.017 314.341 199.617 315.941C194.617 296.941 189.217 242.141 199.617 186.941C187.617 195.274 160.616 213.141 156.617 217.941Z" fill="#B3AEEB" stroke="black" stroke-width="5"/>
<path d="M154.948 218.746C128.614 183.746 63.1476 117.146 11.9476 130.746C5.28095 135.746 -4.45238 155.546 9.94762 194.746C15.9477 205.746 26.3479 233.346 19.9478 255.746C11.6144 280.413 0.347754 332.546 21.9478 343.746C32.9478 352.746 75.1478 352.346 155.948 278.746C143.614 269.215 126.99 247.992 142.471 229.112C143.959 227.298 145.744 225.505 147.857 223.746C148.148 223.501 152.705 220.311 154.948 218.746Z" fill="#555FC0" stroke="black" stroke-width="5"/>
<path d="M135.492 238.746V245.746C98.4918 233.413 21.8918 206.346 11.4918 196.746C11.4918 191.413 36.2918 192.346 135.492 238.746Z" fill="#3F4DB3"/>
<path d="M135.492 250.746C117.492 249.08 69.8918 246.146 23.4918 247.746C18.8252 251.413 34.6918 258.346 135.492 256.746H138.492L135.492 250.746Z" fill="#3F4DB3"/>
<path d="M141.492 263.746C97.4918 275.08 9.89184 300.746 11.4918 312.746C27.4918 311.08 76.4917 299.946 144.492 268.746L141.492 263.746Z" fill="#3F4DB3"/>
<path d="M135.492 238.746V245.746C98.4918 233.413 21.8918 206.346 11.4918 196.746C11.4918 191.413 36.2918 192.346 135.492 238.746Z" stroke="black" stroke-width="5"/>
<path d="M135.492 250.746C117.492 249.08 69.8918 246.146 23.4918 247.746C18.8252 251.413 34.6918 258.346 135.492 256.746H138.492L135.492 250.746Z" stroke="black" stroke-width="5"/>
<path d="M141.492 263.746C97.4918 275.08 9.89184 300.746 11.4918 312.746C27.4918 311.08 76.4917 299.946 144.492 268.746L141.492 263.746Z" stroke="black" stroke-width="5"/>
<path d="M141.494 227.747L147.494 221.747C115.494 192.747 43.0937 135.947 9.49365 140.747C39.1603 157.747 107.094 198.947 141.494 227.747Z" fill="#3F4DB3" stroke="black" stroke-width="5"/>
<path d="M364.494 82.9412C371.494 80.6078 399.694 75.7412 456.494 74.9412C440.16 87.9412 408.294 138.341 411.494 235.941C392.827 226.608 351.494 210.341 335.494 219.941C336.494 184.274 343.694 106.941 364.494 82.9412Z" fill="#B3ACE9" stroke="black" stroke-width="5"/>
<path d="M483.492 412.941C462.227 376.79 456.663 313.369 456.367 276.662C456.301 283.039 455.857 290.385 455.492 294.941C457.092 298.141 450.159 310.941 446.492 316.941C441.692 322.541 425.159 330.608 417.492 333.941C420.692 379.541 430.825 405.608 435.492 412.941C453.092 416.141 474.825 414.274 483.492 412.941Z" fill="#7B80D2"/>
<path d="M497.492 76.9412C484.692 75.3412 464.825 74.9412 456.492 74.9412C414.892 105.341 408.827 194.941 411.494 235.941C436.294 246.341 450.494 259.608 454.494 264.941C455.036 266.298 456.423 268.338 456.492 271.941C456.498 268.717 456.41 266.628 456.492 263.941C448.492 151.141 480.492 92.2745 497.492 76.9412Z" fill="#7B80D2"/>
<path d="M456.367 276.662C456.663 313.369 462.227 376.79 483.492 412.941C474.825 414.274 453.092 416.141 435.492 412.941C430.825 405.608 420.692 379.541 417.492 333.941C425.159 330.608 441.692 322.541 446.492 316.941C450.159 310.941 457.092 298.141 455.492 294.941C455.857 290.385 456.301 283.039 456.367 276.662ZM456.367 276.662C456.356 275.349 456.49 273.183 456.492 271.941M456.367 276.662C456.381 275.331 456.515 273.154 456.492 271.941M456.492 271.941C456.423 268.338 455.036 266.298 454.494 264.941C450.494 259.608 436.294 246.341 411.494 235.941C408.827 194.941 414.892 105.341 456.492 74.9412C464.825 74.9412 484.692 75.3412 497.492 76.9412C480.492 92.2745 448.492 151.141 456.492 263.941C456.41 266.628 456.498 268.717 456.492 271.941Z" stroke="black" stroke-width="5"/>
<path d="M498.493 76.9412C529.16 79.2745 599.893 99.5412 637.493 161.941C649.16 183.941 677.893 227.741 699.493 226.941C718.493 229.608 752.493 242.541 736.493 272.941C716.493 310.941 733.493 293.941 656.493 357.941C649.493 363.941 626.293 379.941 589.493 391.941C579.16 396.941 542.493 408.341 482.493 413.941C470.493 383.941 448.493 305.541 456.493 235.941C454.493 199.941 460.894 117.741 498.493 76.9412Z" fill="#B3ACE9" stroke="black" stroke-width="5"/>
<path d="M651.493 273.943C650.493 271.276 650.293 266.143 657.493 266.943C667.826 275.61 697.893 289.143 735.493 273.943C735.826 275.276 735.293 279.743 730.493 286.943C712.493 289.943 671.493 291.543 651.493 273.943Z" fill="#6C6DBE" stroke="black" stroke-width="5"/>
<circle cx="578.494" cy="200.941" r="62" fill="white" stroke="black" stroke-width="5"/>
<circle cx="591.494" cy="199.941" r="37" fill="black" stroke="black" stroke-width="5"/>
<circle cx="609.494" cy="187.941" r="5" fill="white" stroke="black" stroke-width="5"/>
<path d="M183.686 304.941C174.019 315.274 163.686 348.341 199.686 397.941C209.686 410.941 241.286 437.141 287.686 437.941C312.019 439.941 367.486 437.541 394.686 411.941C374.353 410.941 323.686 403.141 283.686 379.941C264.353 368.941 217.286 338.541 183.686 304.941Z" fill="#4F5CBB" stroke="black" stroke-width="5"/>
<path d="M485.497 445.941C419.097 466.741 432.829 433.941 448.496 414.941C494.896 416.541 530.163 409.608 541.496 405.941C526.296 429.941 497.831 442.608 485.497 445.941Z" fill="#4F5CBB" stroke="black" stroke-width="5"/>
<path d="M349.494 403.941L361.494 405.941C351.494 416.608 331.294 437.541 330.494 435.941C325.827 436.941 316.094 438.541 314.494 436.941C324.827 428.608 346.294 410.341 349.494 403.941Z" fill="#8E91D4"/>
<path d="M297.494 387.941L307.494 391.941C291.827 405.608 258.894 432.541 252.494 430.941C249.16 430.274 242.094 428.541 240.494 426.941C254.16 419.941 284.694 402.341 297.494 387.941Z" fill="#8E91D4"/>
<path d="M256.494 363.941C259.16 365.608 264.894 369.141 266.494 369.941C248.494 383.608 212.094 410.541 210.494 408.941C207.494 406.608 201.694 401.341 202.494 398.941C215.827 392.274 245.294 375.941 256.494 363.941Z" fill="#8E91D4"/>
<path d="M181.494 363.941C194.16 356.274 219.894 340.141 221.494 336.941L229.494 342.941C217.494 352.274 191.894 371.341 185.494 372.941C184.16 371.608 181.494 367.941 181.494 363.941Z" fill="#8E91D4"/>
<path d="M349.494 403.941L361.494 405.941C351.494 416.608 331.294 437.541 330.494 435.941C325.827 436.941 316.094 438.541 314.494 436.941C324.827 428.608 346.294 410.341 349.494 403.941Z" stroke="black" stroke-width="5"/>
<path d="M297.494 387.941L307.494 391.941C291.827 405.608 258.894 432.541 252.494 430.941C249.16 430.274 242.094 428.541 240.494 426.941C254.16 419.941 284.694 402.341 297.494 387.941Z" stroke="black" stroke-width="5"/>
<path d="M256.494 363.941C259.16 365.608 264.894 369.141 266.494 369.941C248.494 383.608 212.094 410.541 210.494 408.941C207.494 406.608 201.694 401.341 202.494 398.941C215.827 392.274 245.294 375.941 256.494 363.941Z" stroke="black" stroke-width="5"/>
<path d="M181.494 363.941C194.16 356.274 219.894 340.141 221.494 336.941L229.494 342.941C217.494 352.274 191.894 371.341 185.494 372.941C184.16 371.608 181.494 367.941 181.494 363.941Z" stroke="black" stroke-width="5"/>
<path d="M197.24 188.507C181.906 138.84 182.84 33.1066 309.24 7.50662C338.24 2.83995 409.64 -2.29338 463.24 14.5066C487.906 20.5066 541.24 44.7066 557.24 93.5066C541.573 81.5066 480.84 62.5066 363.24 82.5066C332.24 88.5066 255.64 118.107 197.24 188.507Z" fill="#4F5CBB" stroke="black" stroke-width="5"/>
<path d="M258.494 23.9415C261.827 22.2748 268.894 18.9415 270.494 18.9415C283.827 33.6081 313.094 67.5417 323.494 93.9417C319.494 95.275 311.094 99.1417 309.494 99.9417C302.16 83.275 281.694 45.5415 258.494 23.9415Z" fill="#8E91D4"/>
<path d="M194.494 107.942L196.494 100.942L198.494 92.9417C213.494 107.275 243.694 136.942 244.494 140.942L235.494 148.942C225.16 134.942 201.694 107.942 194.494 107.942Z" fill="#8E91D4"/>
<path d="M215.494 61.9415C217.16 59.2748 220.694 53.9415 221.494 53.9415C222.494 53.9415 253.494 81.9417 278.494 116.942L269.494 122.942C256.827 105.942 229.094 69.9415 215.494 61.9415Z" fill="#8E91D4"/>
<path d="M357.494 82.9415L372.494 79.9415C361.16 56.9415 335.694 9.74148 324.494 4.94148C319.16 5.60814 308.894 6.14165 310.494 6.94165C318.494 12.6083 339.094 36.5415 357.494 82.9415Z" fill="#8E91D4"/>
<path d="M490.494 24.9417C494.827 26.9417 503.894 31.5417 505.494 33.9417C506.16 38.275 507.894 52.1417 509.494 76.9417C507.16 75.9417 501.094 74.9417 495.494 74.9417C495.16 60.275 493.694 29.7417 490.494 24.9417Z" fill="#8E91D4"/>
<path d="M423.494 5.94165C428.827 6.60832 439.894 8.34165 441.494 9.94165C446.827 24.275 458.094 56.9417 460.494 72.9417H446.494C443.827 58.275 435.494 24.3417 423.494 5.94165Z" fill="#8E91D4"/>
<path d="M366.494 2.94148C369.827 2.60814 377.694 2.14148 382.494 2.94148C388.494 9.94153 403.294 33.3417 414.494 74.9417L403.494 75.9417C397.827 57.6082 382.494 17.3413 366.494 2.94148Z" fill="#8E91D4"/>
<path d="M258.494 23.9415C261.827 22.2748 268.894 18.9415 270.494 18.9415C283.827 33.6081 313.094 67.5417 323.494 93.9417C319.494 95.275 311.094 99.1417 309.494 99.9417C302.16 83.275 281.694 45.5415 258.494 23.9415Z" stroke="black" stroke-width="5"/>
<path d="M194.494 107.942L196.494 100.942L198.494 92.9417C213.494 107.275 243.694 136.942 244.494 140.942L235.494 148.942C225.16 134.942 201.694 107.942 194.494 107.942Z" stroke="black" stroke-width="5"/>
<path d="M215.494 61.9415C217.16 59.2748 220.694 53.9415 221.494 53.9415C222.494 53.9415 253.494 81.9417 278.494 116.942L269.494 122.942C256.827 105.942 229.094 69.9415 215.494 61.9415Z" stroke="black" stroke-width="5"/>
<path d="M357.494 82.9415L372.494 79.9415C361.16 56.9415 335.694 9.74148 324.494 4.94148C319.16 5.60814 308.894 6.14165 310.494 6.94165C318.494 12.6083 339.094 36.5415 357.494 82.9415Z" stroke="black" stroke-width="5"/>
<path d="M490.494 24.9417C494.827 26.9417 503.894 31.5417 505.494 33.9417C506.16 38.275 507.894 52.1417 509.494 76.9417C507.16 75.9417 501.094 74.9417 495.494 74.9417C495.16 60.275 493.694 29.7417 490.494 24.9417Z" stroke="black" stroke-width="5"/>
<path d="M423.494 5.94165C428.827 6.60832 439.894 8.34165 441.494 9.94165C446.827 24.275 458.094 56.9417 460.494 72.9417H446.494C443.827 58.275 435.494 24.3417 423.494 5.94165Z" stroke="black" stroke-width="5"/>
<path d="M366.494 2.94148C369.827 2.60814 377.694 2.14148 382.494 2.94148C388.494 9.94153 403.294 33.3417 414.494 74.9417L403.494 75.9417C397.827 57.6082 382.494 17.3413 366.494 2.94148Z" stroke="black" stroke-width="5"/>
<circle cx="609.494" cy="188.5" r="10" fill="white"/>
</svg>
