<svg width="612" height="612" viewBox="0 0 612 612" fill="none" xmlns="http://www.w3.org/2000/svg">
<path d="M350.772 567.639L306.392 611.899L262.13 567.519L306.511 523.258L350.772 567.639ZM474.387 516.085L430.802 559.856L307.32 436.903L182.814 560.877L139.23 517.104L263.548 393.318L263.351 393.122L306.935 349.35L474.387 516.085ZM262.527 306.172L218.756 349.756L218.559 349.559L94.7725 473.876L51 430.291L174.974 305.786L52.0205 182.304L95.792 138.72L262.527 306.172ZM561.387 181.795L438.434 305.276L562.407 429.782L518.635 473.366L394.849 349.049L394.652 349.246L350.88 305.662L517.615 138.21L561.387 181.795ZM88.6357 305.415L44.8506 350.266L0 306.48L43.7852 261.63L88.6357 305.415ZM611.896 304.396L568.111 349.246L523.26 305.461L567.045 260.61L611.896 304.396ZM474.386 98.3418L350.068 222.128L350.266 222.325L306.682 266.097L139.229 99.3613L182.813 55.5898L306.296 178.543L430.802 54.5693L474.386 98.3418ZM351.286 43.7852L307.501 88.6357L262.65 44.8506L306.436 0L351.286 43.7852Z" fill="#121212"/>
</svg>
